<svg width="148" height="154" viewBox="0 0 148 154" fill="none" xmlns="http://www.w3.org/2000/svg">
<g opacity="0.1">
<path fill-rule="evenodd" clip-rule="evenodd" d="M86.8036 152.484C37.0089 161.264 3.23532 119.615 0.0191364 87.639C-0.057127 86.8791 0.0696613 86.7588 0.857555 86.7821C48.4178 88.1782 71.7602 129.323 73.4681 151.627C73.4754 151.724 74.5937 156.569 74.5757 152.13C74.5077 135.814 95.5787 89.8799 144.131 86.946C146.292 86.815 146.776 85.3597 147.981 87.1943C148.404 87.8392 142.198 141.125 86.8036 152.484Z" fill="#E6E6E6"/>
<path fill-rule="evenodd" clip-rule="evenodd" d="M74.1633 0C74.5728 0.350612 74.6772 0.312785 74.6641 0.85107C74.5912 3.8771 73.8675 7.22562 77.0652 16.8682C84.5113 39.32 106.952 51.9434 120.315 51.9425C121.416 52.1956 121.47 52.0007 121.515 52.086C121.634 52.3115 121.263 52.6131 121.382 52.8386C119.167 53.1427 112.936 53.0093 103.286 57.947C79.6062 70.0633 75.7094 92.7682 75.2353 94.9431C74.6126 97.7975 74.6796 97.7645 74.5805 103.139C74.2993 103.308 74.018 103.477 73.7368 103.646C73.4152 97.8198 73.3181 79.7693 54.7967 63.8643C52.7672 62.1214 40.4519 52.6587 26.094 52.8125C25.0831 52.8231 25.2148 51.8731 26.1285 51.8416C47.558 51.1064 72.9819 30.6919 73.5969 0.829736C73.6163 -0.130931 73.9879 0.110566 74.1633 0Z" fill="#E6E6E6"/>
</g>
</svg>
