<svg width="26" height="26" viewBox="0 0 26 26" fill="none" xmlns="http://www.w3.org/2000/svg">
<path d="M11.5684 18.2192C11.9473 18.6011 12.564 18.6035 12.9459 18.2246C13.3278 17.8457 13.3302 17.2289 12.9513 16.8471L12.2598 17.5331L11.5684 18.2192ZM7.42727 12.6628L6.73583 11.9768C6.359 12.3565 6.359 12.9691 6.73583 13.3489L7.42727 12.6628ZM12.9513 8.47862C13.3302 8.09675 13.3278 7.48001 12.9459 7.1011C12.564 6.72219 11.9473 6.72459 11.5684 7.10646L12.2598 7.79254L12.9513 8.47862ZM8.09876 11.6888C7.5608 11.6888 7.1247 12.1249 7.1247 12.6628C7.1247 13.2008 7.5608 13.6369 8.09876 13.6369V12.6628V11.6888ZM17.8984 13.6369C18.4364 13.6369 18.8725 13.2008 18.8725 12.6628C18.8725 12.1249 18.4364 11.6888 17.8984 11.6888V12.6628V13.6369ZM12.2598 17.5331L12.9513 16.8471L8.11871 11.9768L7.42727 12.6628L6.73583 13.3489L11.5684 18.2192L12.2598 17.5331ZM7.42727 12.6628L8.11871 13.3489L12.9513 8.47862L12.2598 7.79254L11.5684 7.10646L6.73583 11.9768L7.42727 12.6628ZM8.09876 12.6628V13.6369H17.8984V12.6628V11.6888H8.09876V12.6628ZM24.3516 12.6628H25.3256C25.3256 5.67174 19.6539 6.10352e-05 12.6628 6.10352e-05V0.974121V1.94818C18.578 1.94818 23.3775 6.74765 23.3775 12.6628H24.3516ZM12.6628 0.974121V6.10352e-05C5.67174 6.10352e-05 6.10352e-05 5.67174 6.10352e-05 12.6628H0.974121H1.94818C1.94818 6.74765 6.74765 1.94818 12.6628 1.94818V0.974121ZM0.974121 12.6628H6.10352e-05C6.10352e-05 19.6539 5.67174 25.3256 12.6628 25.3256V24.3516V23.3775C6.74765 23.3775 1.94818 18.578 1.94818 12.6628H0.974121ZM12.6628 24.3516V25.3256C19.6539 25.3256 25.3256 19.6539 25.3256 12.6628H24.3516H23.3775C23.3775 18.578 18.578 23.3775 12.6628 23.3775V24.3516Z" fill="#16171F"/>
</svg>
