<svg width="133" height="80" viewBox="0 0 133 80" fill="none" xmlns="http://www.w3.org/2000/svg">
<g clip-path="url(#clip0_71_401)">
<path d="M4.30039 79.3647V76.2674H13.3363V79.3647H4.30039ZM4.30039 64.5438V61.4465H13.3363V64.5438H4.30039ZM4.30039 71.3783V68.3322H12.8244V71.3783H4.30039ZM1.94541 61.4465H5.47787V79.3647H1.94541V61.4465ZM27.8322 61.4465H31.3646V80.2607L18.617 68.2554V79.3647H15.0846V60.5506L27.8322 72.5558V61.4465ZM32.2208 64.8765V61.4465H46.197L37.5706 79.3647H33.6286L40.8215 64.8765H32.2208ZM46.3624 61.4465H50.0997V79.3647H46.3624V61.4465ZM52.4546 79.3647H48.7174V76.0371H52.3267C53.1117 76.0371 53.854 75.9347 54.5536 75.7299C55.2533 75.5081 55.8677 75.1668 56.3967 74.706C56.9257 74.2452 57.3352 73.665 57.6253 72.9654C57.9325 72.2486 58.0861 71.3954 58.0861 70.4056C58.0861 69.4158 57.9325 68.5711 57.6253 67.8715C57.3352 67.1547 56.9257 66.566 56.3967 66.1052C55.8677 65.6445 55.2533 65.3117 54.5536 65.1069C53.854 64.8851 53.1117 64.7742 52.3267 64.7742H48.7174V61.4465H52.4546C54.3318 61.4465 55.97 61.8134 57.3694 62.5472C58.7858 63.281 59.8865 64.3219 60.6715 65.6701C61.4564 67.0011 61.8489 68.5797 61.8489 70.4056C61.8489 72.2316 61.4564 73.8186 60.6715 75.1668C59.8865 76.4978 58.7858 77.5303 57.3694 78.2641C55.97 78.9978 54.3318 79.3647 52.4546 79.3647ZM65.1813 79.3647V76.2674H74.2172V79.3647H65.1813ZM65.1813 64.5438V61.4465H74.2172V64.5438H65.1813ZM65.1813 71.3783V68.3322H73.7052V71.3783H65.1813ZM62.8263 61.4465H66.3587V79.3647H62.8263V61.4465ZM77.5269 73.3493C77.9023 74.0149 78.3119 74.5951 78.7556 75.09C79.2163 75.5848 79.7198 75.9688 80.2658 76.2418C80.8119 76.5149 81.4007 76.6514 82.0321 76.6514C82.7659 76.6514 83.3631 76.4637 83.8239 76.0883C84.2847 75.7128 84.515 75.2009 84.515 74.5524C84.515 73.9893 84.37 73.537 84.0799 73.1957C83.8068 72.8544 83.3887 72.5558 82.8256 72.2998C82.2795 72.0268 81.6054 71.7367 80.8034 71.4295C80.3768 71.2759 79.8819 71.0711 79.3187 70.8152C78.7727 70.5421 78.2522 70.2008 77.7573 69.7913C77.2624 69.3646 76.8528 68.8527 76.5286 68.2554C76.2044 67.6411 76.0422 66.9073 76.0422 66.054C76.0422 65.0301 76.2982 64.1513 76.8102 63.4175C77.3392 62.6666 78.0474 62.0949 78.9348 61.7024C79.8392 61.2929 80.8461 61.0881 81.9553 61.0881C83.0986 61.0881 84.0799 61.2844 84.899 61.6769C85.7352 62.0523 86.4263 62.5386 86.9724 63.1359C87.5355 63.7161 87.9707 64.3219 88.2779 64.9533L85.4109 66.5404C85.172 66.1138 84.8819 65.7298 84.5406 65.3885C84.2164 65.0301 83.841 64.7486 83.4143 64.5438C82.9877 64.3219 82.5014 64.211 81.9553 64.211C81.2385 64.211 80.701 64.3817 80.3426 64.723C79.9843 65.0472 79.8051 65.4312 79.8051 65.8748C79.8051 66.3185 79.9501 66.711 80.2402 67.0523C80.5303 67.3766 80.974 67.6923 81.5713 67.9994C82.1686 68.2895 82.9195 68.5882 83.8239 68.8954C84.4041 69.1001 84.9587 69.3561 85.4877 69.6633C86.0338 69.9705 86.5202 70.3459 86.9468 70.7896C87.3905 71.2162 87.7318 71.7281 87.9707 72.3254C88.2267 72.9056 88.3547 73.5797 88.3547 74.3476C88.3547 75.2179 88.184 75.9944 87.8427 76.677C87.5014 77.3596 87.0321 77.9398 86.4348 78.4176C85.8376 78.8784 85.1635 79.2282 84.4126 79.4671C83.6788 79.7231 82.9024 79.8511 82.0833 79.8511C80.9911 79.8511 79.9672 79.6463 79.0116 79.2368C78.073 78.8101 77.2539 78.2385 76.5542 77.5217C75.8545 76.805 75.3085 76.0285 74.916 75.1923L77.5269 73.3493ZM89.4796 61.4465H93.1912V79.3647H89.4796V61.4465ZM103.898 72.7094V69.7913H112.729C112.78 71.1565 112.618 72.4449 112.242 73.6565C111.884 74.8681 111.312 75.9432 110.527 76.8818C109.759 77.8033 108.804 78.5286 107.66 79.0576C106.517 79.5866 105.212 79.8511 103.744 79.8511C102.362 79.8511 101.082 79.6207 99.9044 79.16C98.744 78.6992 97.7286 78.0507 96.8583 77.2146C96.0051 76.3784 95.3395 75.3801 94.8617 74.2196C94.4009 73.0592 94.1706 71.7879 94.1706 70.4056C94.1706 69.0233 94.4095 67.7605 94.8873 66.6172C95.3822 65.4568 96.0648 64.467 96.9351 63.6479C97.8054 62.8287 98.8293 62.1973 100.007 61.7536C101.184 61.31 102.464 61.0881 103.846 61.0881C105.075 61.0881 106.176 61.2588 107.149 61.6001C108.138 61.9414 109.009 62.4192 109.759 63.0335C110.527 63.6308 111.184 64.3475 111.73 65.1837L108.608 67.0011C108.164 66.2161 107.541 65.5847 106.739 65.1069C105.954 64.612 104.99 64.3646 103.846 64.3646C102.771 64.3646 101.79 64.612 100.903 65.1069C100.015 65.5847 99.3071 66.2759 98.7781 67.1803C98.2662 68.0848 98.0102 69.1599 98.0102 70.4056C98.0102 71.6343 98.2662 72.7179 98.7781 73.6565C99.2901 74.578 99.9812 75.2947 100.852 75.8067C101.739 76.3186 102.737 76.5746 103.846 76.5746C104.58 76.5746 105.237 76.4808 105.817 76.293C106.398 76.0883 106.893 75.8067 107.302 75.4483C107.729 75.09 108.087 74.6804 108.377 74.2196C108.667 73.7589 108.889 73.2555 109.043 72.7094H103.898ZM126.606 61.4465H130.138V80.2607L117.391 68.2554V79.3647H113.858V60.5506L126.606 72.5558V61.4465Z" fill="white"/>
<path d="M64.5614 41.0735L78.4486 17.3943L76.4296 13.9446L76.39 13.878L74.4801 10.6103L74.3349 10.3612L72.5191 7.25695L72.3521 6.9723H60.8626L56.8642 13.7868L56.773 13.9446L54.754 17.3857L59.0227 24.5824L61.1323 20.9841L58.9986 17.3857L60.9596 14.0445L61.0175 13.9446L62.9728 10.6103H70.5512L70.5695 10.5827L70.5845 10.6103L72.3854 13.6869L72.534 13.9446L74.4411 17.2038L62.4908 37.5813V37.5842L64.5614 41.0735Z" fill="white"/>
<path d="M86.4884 17.0374L66.6257 51.7934L64.5705 48.2375L82.6742 17.3674L80.6736 13.9452L80.5737 13.7719L78.7246 10.6103L78.5152 10.2556L76.596 6.97232L76.46 6.73874L74.6471 3.63796H58.5469L54.6874 10.119L54.3964 10.6103L52.5622 13.6904L52.4079 13.9452L50.4342 17.2583L58.5893 31.0061L62.8092 23.8123L66.7955 17.1217L68.6022 20.1961L66.5981 23.5546L58.389 37.5515L46.5116 17.0127L56.6427 0H76.5237L80.5221 6.8363L80.6007 6.97232L82.5772 10.3526L82.7293 10.6103L84.6783 13.9452H84.6812V13.9481L86.4884 17.0374Z" fill="white"/>
</g>
<defs>
<clipPath id="clip0_71_401">
<rect width="133" height="79.3646" fill="white"/>
</clipPath>
</defs>
</svg>
