<svg width="148" height="154" viewBox="0 0 148 154" fill="none" xmlns="http://www.w3.org/2000/svg">
<path opacity="0.1" d="M135.65 103.725L135.63 103.708C132.322 100.649 128.04 99.9294 124.914 99.4029L124.684 99.3629C121.668 98.8664 121.192 98.5298 119.825 97.3069C119.012 96.5838 118.043 95.4242 118.043 93.9946C118.043 92.5651 119.012 91.4054 119.822 90.6823L129.912 81.7285C138.55 74.0942 143.308 63.8474 143.308 52.8742C143.308 41.901 138.56 31.6543 129.912 24.0167C117.953 13.49 101.588 7.68848 83.8035 7.68848C63.2466 7.68848 42.6797 15.476 27.3512 29.0517C12.7325 41.971 4.69171 59.2789 4.69171 77.7831C4.69171 96.2872 12.7425 113.595 27.3512 126.511C34.599 132.922 43.1763 137.901 52.8499 141.313C62.1542 144.576 71.9375 146.266 81.7974 146.311H82.4006C102.727 146.311 122.085 139.457 135.514 127.517C138.746 124.665 140.562 120.576 140.626 116.001C140.696 111.279 138.836 106.687 135.65 103.725ZM26.0183 61.005C26.0183 58.896 26.6437 56.8344 27.8154 55.0808C28.9871 53.3272 30.6525 51.9605 32.601 51.1534C34.5494 50.3463 36.6935 50.1351 38.7619 50.5466C40.8304 50.958 42.7304 51.9736 44.2217 53.4649C45.713 54.9562 46.7286 56.8562 47.14 58.9247C47.5515 60.9932 47.3403 63.1372 46.5332 65.0857C45.7262 67.0341 44.3594 68.6995 42.6058 69.8712C40.8523 71.0429 38.7906 71.6683 36.6816 71.6683C33.8535 71.6683 31.1413 70.5449 29.1415 68.5451C27.1418 66.5453 26.0183 63.8331 26.0183 61.005ZM39.3475 105.991C37.2385 105.991 35.1768 105.365 33.4232 104.194C31.6697 103.022 30.3029 101.357 29.4958 99.4082C28.6888 97.4597 28.4776 95.3157 28.889 93.2472C29.3005 91.1787 30.3161 89.2787 31.8074 87.7874C33.2987 86.2961 35.1987 85.2806 37.2672 84.8691C39.3356 84.4577 41.4797 84.6688 43.4281 85.4759C45.3766 86.283 47.042 87.6497 48.2137 89.4033C49.3854 91.1569 50.0108 93.2185 50.0108 95.3275C50.0108 98.1556 48.8873 100.868 46.8876 102.868C44.8878 104.867 42.1755 105.991 39.3475 105.991ZM52.6766 39.6784C52.6766 37.5694 53.302 35.5078 54.4737 33.7542C55.6454 32.0006 57.3108 30.6339 59.2592 29.8268C61.2077 29.0197 63.3517 28.8085 65.4202 29.22C67.4887 29.6314 69.3887 30.647 70.88 32.1383C72.3713 33.6296 73.3869 35.5296 73.7983 37.5981C74.2098 39.6666 73.9986 41.8106 73.1915 43.7591C72.3844 45.7075 71.0177 47.3729 69.2641 48.5446C67.5105 49.7163 65.4489 50.3417 63.3399 50.3417C60.5118 50.3417 57.7996 49.2182 55.7998 47.2185C53.8 45.2187 52.6766 42.5065 52.6766 39.6784ZM74.0032 129.983C70.8397 129.983 67.7472 129.045 65.1169 127.288C62.4865 125.53 60.4364 123.032 59.2258 120.109C58.0152 117.187 57.6984 113.971 58.3156 110.868C58.9328 107.765 60.4561 104.915 62.6931 102.678C64.93 100.441 67.78 98.9179 70.8827 98.3007C73.9855 97.6835 77.2015 98.0003 80.1242 99.2109C83.0469 100.422 85.545 102.472 87.3025 105.102C89.0601 107.732 89.9982 110.825 89.9982 113.988C89.9982 118.23 88.313 122.299 85.3134 125.298C82.3137 128.298 78.2453 129.983 74.0032 129.983ZM97.9957 50.3417C95.8867 50.3417 93.825 49.7163 92.0714 48.5446C90.3179 47.3729 88.9511 45.7075 88.144 43.7591C87.337 41.8106 87.1258 39.6666 87.5372 37.5981C87.9487 35.5296 88.9643 33.6296 90.4556 32.1383C91.9468 30.647 93.8469 29.6314 95.9153 29.22C97.9838 28.8085 100.128 29.0197 102.076 29.8268C104.025 30.6339 105.69 32.0006 106.862 33.7542C108.034 35.5078 108.659 37.5694 108.659 39.6784C108.659 42.5065 107.535 45.2187 105.536 47.2185C103.536 49.2182 100.824 50.3417 97.9957 50.3417Z" fill="#E6E6E6"/>
</svg>
