<svg width="166" height="179" viewBox="0 0 166 179" fill="none" xmlns="http://www.w3.org/2000/svg">
<path d="M74.8807 170.396L132.493 72.1615L124.117 57.8501L123.953 57.574L116.029 44.0173L115.427 42.984L107.894 30.1059L107.201 28.925H59.536L42.9486 57.1954L42.57 57.8501L34.1941 72.1258L51.903 101.982L60.655 87.0538L51.803 72.1258L59.9384 58.2644L60.1789 57.8501L68.2905 44.0173H99.7298L99.806 43.903L99.8679 44.0173L107.339 56.7811L107.956 57.8501L115.867 71.3711L66.2905 155.908V155.92L74.8807 170.396Z" fill="#16171F"/>
<path d="M165.846 70.6807L83.4445 214.868L74.9186 200.116L150.023 72.0497L141.723 57.8526L141.309 57.1336L133.638 44.0174L132.769 42.546L124.807 28.9251L124.243 27.9561L116.722 15.0923H49.9291L33.9178 41.9794L32.7107 44.0174L25.1014 56.7955L24.461 57.8526L16.2732 71.5973L50.1053 128.631L67.6118 98.7868L84.1492 71.0307L91.6442 83.785L83.3302 97.7178L49.2744 155.785L0 70.5783L42.0294 0H124.507L141.095 28.3609L141.421 28.9251L149.621 42.9484L150.252 44.0174L158.337 57.8526H158.349V57.8645L165.846 70.6807Z" fill="#16171F"/>
</svg>
