<svg width="117" height="36" viewBox="0 0 117 36" fill="none" xmlns="http://www.w3.org/2000/svg">
<path d="M13.1255 27.7148L22.3364 12.0094L20.9973 9.72137L20.971 9.67722L19.7042 7.50982L19.6079 7.34462L18.4036 5.28571L18.2928 5.09691H10.6723L8.02032 9.61669L7.9598 9.72137L6.62069 12.0037L9.45193 16.777L10.8512 14.3904L9.43594 12.0037L10.7366 9.7876L10.775 9.72137L12.0719 7.50982H17.0983L17.1105 7.49155L17.1204 7.50982L18.3149 9.55046L18.4134 9.72137L19.6783 11.8831L11.7522 25.3986V25.4005L13.1255 27.7148Z" fill="#16171F"/>
<path d="M27.6688 11.7727L14.4947 34.8249L13.1316 32.4664L25.139 11.9916L23.8121 9.72177L23.7459 9.60681L22.5194 7.50984L22.3805 7.2746L21.1076 5.09693L21.0174 4.94201L19.815 2.88538H9.13635L6.57651 7.18401L6.38352 7.50984L5.16698 9.55276L5.06459 9.72177L3.75555 11.9192L9.16451 21.0376L11.9634 16.2662L14.6074 11.8286L15.8056 13.8678L14.4764 16.0953L9.03167 25.3788L1.15384 11.7563L7.87337 0.472473H21.0597L23.7116 5.00672L23.7638 5.09693L25.0747 7.33893L25.1756 7.50984L26.4683 9.72177H26.4702V9.72367L27.6688 11.7727Z" fill="#16171F"/>
<path d="M33.0211 22V19.9457H39.0142V22H33.0211ZM33.0211 12.1699V10.1155H39.0142V12.1699H33.0211ZM33.0211 16.7029V14.6826H38.6747V16.7029H33.0211ZM31.4591 10.1155H33.8021V22H31.4591V10.1155ZM48.6287 10.1155H50.9717V22.5942L42.5167 14.6316V22H40.1738V9.52132L48.6287 17.4839V10.1155ZM51.5395 12.3906V10.1155H60.8094L55.0879 22H52.4733L57.2441 12.3906H51.5395ZM60.9191 10.1155H63.3979V22H60.9191V10.1155ZM64.9598 22H62.4811V19.7929H64.875C65.3956 19.7929 65.888 19.725 66.352 19.5892C66.8161 19.442 67.2235 19.2156 67.5744 18.91C67.9253 18.6044 68.1969 18.2196 68.3894 17.7555C68.5931 17.2802 68.695 16.7142 68.695 16.0578C68.695 15.4013 68.5931 14.841 68.3894 14.377C68.1969 13.9016 67.9253 13.5111 67.5744 13.2055C67.2235 12.8999 66.8161 12.6792 66.352 12.5434C65.888 12.3962 65.3956 12.3227 64.875 12.3227H62.4811V10.1155H64.9598C66.2049 10.1155 67.2915 10.3589 68.2196 10.8456C69.159 11.3323 69.8891 12.0227 70.4097 12.9169C70.9304 13.7997 71.1907 14.8467 71.1907 16.0578C71.1907 17.2689 70.9304 18.3215 70.4097 19.2156C69.8891 20.0985 69.159 20.7833 68.2196 21.27C67.2915 21.7567 66.2049 22 64.9598 22ZM73.4009 22V19.9457H79.394V22H73.4009ZM73.4009 12.1699V10.1155H79.394V12.1699H73.4009ZM73.4009 16.7029V14.6826H79.0545V16.7029H73.4009ZM71.8389 10.1155H74.1819V22H71.8389V10.1155ZM81.5892 18.0102C81.8383 18.4516 82.1099 18.8365 82.4042 19.1647C82.7098 19.4929 83.0437 19.7476 83.4059 19.9287C83.7681 20.1098 84.1586 20.2004 84.5773 20.2004C85.064 20.2004 85.4602 20.0758 85.7658 19.8268C86.0714 19.5778 86.2242 19.2383 86.2242 18.8082C86.2242 18.4347 86.128 18.1347 85.9356 17.9083C85.7545 17.682 85.4772 17.4839 85.1037 17.3141C84.7415 17.133 84.2944 16.9406 83.7624 16.7369C83.4794 16.635 83.1512 16.4992 82.7777 16.3294C82.4155 16.1483 82.0703 15.9219 81.742 15.6503C81.4138 15.3673 81.1422 15.0278 80.9271 14.6316C80.7121 14.2242 80.6045 13.7375 80.6045 13.1715C80.6045 12.4924 80.7743 11.9095 81.1139 11.4228C81.4647 10.9248 81.9345 10.5456 82.523 10.2853C83.1229 10.0137 83.7907 9.87785 84.5264 9.87785C85.2848 9.87785 85.9356 10.008 86.4789 10.2683C87.0335 10.5173 87.4919 10.8399 87.8541 11.2361C88.2276 11.6209 88.5162 12.0227 88.7199 12.4415L86.8184 13.4941C86.66 13.2112 86.4675 12.9565 86.2412 12.7301C86.0261 12.4924 85.7771 12.3057 85.4941 12.1699C85.2112 12.0227 84.8886 11.9491 84.5264 11.9491C84.051 11.9491 83.6945 12.0623 83.4568 12.2887C83.2191 12.5037 83.1003 12.7584 83.1003 13.0527C83.1003 13.347 83.1965 13.6073 83.3889 13.8337C83.5813 14.0487 83.8756 14.2581 84.2717 14.4619C84.6679 14.6543 85.1659 14.8523 85.7658 15.0561C86.1506 15.1919 86.5185 15.3617 86.8693 15.5654C87.2315 15.7691 87.5541 16.0182 87.8371 16.3124C88.1314 16.5954 88.3577 16.935 88.5162 17.3311C88.686 17.7159 88.7709 18.163 88.7709 18.6724C88.7709 19.2496 88.6577 19.7646 88.4313 20.2173C88.2049 20.6701 87.8937 21.0549 87.4975 21.3718C87.1014 21.6774 86.6543 21.9095 86.1563 22.0679C85.6696 22.2377 85.1546 22.3226 84.6113 22.3226C83.8869 22.3226 83.2078 22.1868 82.574 21.9151C81.9514 21.6321 81.4082 21.253 80.9441 20.7776C80.48 20.3022 80.1178 19.7872 79.8575 19.2326L81.5892 18.0102ZM89.517 10.1155H91.9788V22H89.517V10.1155ZM99.0799 17.5858V15.6503H104.937C104.971 16.5558 104.864 17.4103 104.615 18.214C104.377 19.0176 103.998 19.7306 103.477 20.3532C102.968 20.9644 102.334 21.4454 101.576 21.7963C100.817 22.1471 99.9514 22.3226 98.978 22.3226C98.0612 22.3226 97.2123 22.1698 96.4313 21.8642C95.6617 21.5586 94.9882 21.1285 94.411 20.5739C93.8451 20.0193 93.4036 19.3571 93.0867 18.5875C92.7811 17.8178 92.6283 16.9746 92.6283 16.0578C92.6283 15.141 92.7868 14.3034 93.1037 13.5451C93.4319 12.7754 93.8847 12.1189 94.4619 11.5756C95.0392 11.0323 95.7183 10.6136 96.4993 10.3193C97.2802 10.025 98.1291 9.87785 99.0459 9.87785C99.8609 9.87785 100.591 9.99103 101.236 10.2174C101.893 10.4438 102.47 10.7607 102.968 11.1682C103.477 11.5643 103.913 12.0397 104.275 12.5943L102.204 13.7997C101.91 13.2791 101.496 12.8603 100.964 12.5434C100.444 12.2151 99.8043 12.051 99.0459 12.051C98.3329 12.051 97.682 12.2151 97.0935 12.5434C96.5049 12.8603 96.0352 13.3187 95.6843 13.9186C95.3448 14.5184 95.175 15.2315 95.175 16.0578C95.175 16.8727 95.3448 17.5914 95.6843 18.214C96.0239 18.8252 96.4823 19.3005 97.0595 19.6401C97.6481 19.9796 98.3102 20.1494 99.0459 20.1494C99.5326 20.1494 99.9684 20.0872 100.353 19.9627C100.738 19.8268 101.066 19.6401 101.338 19.4024C101.621 19.1647 101.859 18.8931 102.051 18.5875C102.243 18.2819 102.391 17.948 102.492 17.5858H99.0799ZM114.141 10.1155H116.484V22.5942L108.029 14.6316V22H105.686V9.52132L114.141 17.4839V10.1155Z" fill="#16171F"/>
</svg>
