<svg width="1440" height="690" viewBox="0 0 1440 690" fill="none" xmlns="http://www.w3.org/2000/svg">
<g clip-path="url(#clip0_50_11)">
<path fill-rule="evenodd" clip-rule="evenodd" d="M1164.19 959.321C1165.8 959.677 1167.41 960.035 1169.01 960.392V960.66H1163.93C1164.01 960.213 1164.1 959.768 1164.19 959.321ZM838.798 957.178C841.477 957.22 842.234 958.636 842.814 960.66H829.157C829.246 960.481 829.335 960.303 829.424 960.124C832.548 959.143 835.673 958.16 838.798 957.178ZM776.664 944.588C781.385 944.899 786.037 950.524 788.181 953.696V954.767C786.306 956.731 784.43 958.696 782.557 960.66H751.49C751.758 960.303 752.026 959.946 752.294 959.588C760.416 954.588 768.541 949.589 776.664 944.588ZM234.338 960.66C234.264 956.093 232.684 948.745 234.338 945.124C252.012 944.232 269.692 943.339 287.365 942.445C296.113 942.356 304.864 942.267 313.612 942.178C318.76 943.261 336.633 956.862 339.589 960.66H234.338ZM912.715 939.23C913.607 939.319 914.5 939.41 915.392 939.499C919.897 941.749 925.231 954.716 926.641 960.66H899.859C895.298 958.393 884.417 949.927 880.845 946.196V945.928C880.934 945.838 881.023 945.749 881.112 945.66C891.646 943.517 902.183 941.374 912.715 939.23ZM496.53 939.23C497.065 939.319 497.601 939.41 498.137 939.499C501.381 941.043 516.493 957.256 518.49 960.66C502.869 960.571 487.243 960.481 471.623 960.392V960.124C474.568 957.446 477.515 954.767 480.461 952.089C485.817 947.803 491.174 943.515 496.53 939.23ZM1333.45 937.623C1340.54 937.528 1364.03 951.374 1368.54 955.303C1368.45 955.57 1368.35 955.839 1368.28 956.106C1367.19 957.624 1366.12 959.143 1365.06 960.66C1336.76 960.571 1308.46 960.481 1280.16 960.392V960.124C1287.83 956.196 1295.52 952.266 1303.19 948.338C1309.97 945.66 1316.77 942.981 1323.55 940.303C1326.84 939.41 1330.15 938.518 1333.45 937.623ZM0 960.66C0.0890718 951.643 0.176871 942.623 0.265943 933.605C2.94446 936.284 5.62298 938.963 8.30149 941.642C10.5156 942.641 20.2817 952.26 19.2815 953.963C15.7937 959.58 9.53323 960.807 0 960.66ZM198.718 930.392C199.165 930.481 199.611 930.57 200.057 930.66C203.88 938.827 204.475 950.072 205.949 960.66H144.084C144.262 960.392 144.441 960.124 144.62 959.857C153.546 954.678 162.475 949.498 171.401 944.32C180.22 939.087 189.624 935.622 198.718 930.392ZM1439.77 960.66H1422.1C1418.63 954.667 1407.89 950.584 1403.36 944.588C1404.09 940.184 1420.95 924.108 1424.77 920.481C1425.32 920.57 1425.85 920.659 1426.39 920.749C1428.78 921.842 1438.59 930.908 1439.77 933.069V960.66ZM561.609 896.909C562.323 897.176 563.037 897.445 563.751 897.712C564.862 901.652 563.552 907.825 562.679 912.177C560.427 923.406 559.415 948.871 552.235 954.231C548.023 953.544 545.145 949.283 542.594 946.732C535.483 939.62 525.848 932.144 521.168 922.892C522.114 918.919 527.763 916.881 530.809 914.856C540.558 908.376 551.525 903.47 561.609 896.909ZM1135.27 960.66H1083.85V956.642C1086.15 953.995 1093.64 954.914 1098.31 954.767C1111.28 954.359 1130.8 957.148 1132.86 945.391C1135.49 930.376 1112.74 934.551 1101.79 932.802C1097.93 932.186 1093.19 933.526 1091.62 930.66C1090.08 927.271 1094.89 898.987 1096.7 895.837C1109.24 894.64 1124.74 894.761 1136.34 896.909C1136.61 897.265 1136.88 897.624 1137.14 897.98C1136.52 918.871 1135.89 939.769 1135.27 960.66ZM1015.02 892.891C1028.52 892.658 1042.15 892.593 1054.66 894.498C1058.49 895.083 1064.61 893.585 1066.44 896.105C1068.61 899.089 1063.94 925.291 1062.96 929.32C1056.35 933.562 1037.56 933.365 1028.41 934.945C1024.39 935.64 1018.83 935.492 1016.36 933.874C1014.7 927.252 1010.39 898.474 1013.68 893.427C1014.13 893.247 1014.57 893.071 1015.02 892.891ZM174.882 886.73C177.045 886.674 177.515 887.013 178.632 887.802C179.895 891.011 186.028 900.293 185.059 903.606C183.086 907.19 172.136 911.664 168.188 914.052C157.03 920.658 145.868 927.267 134.71 933.874C129.298 937.109 122.844 942.653 115.695 943.517C115.605 943.339 115.516 943.159 115.427 942.981C117.324 932.67 134.253 915.027 140.334 906.552C143.359 902.339 146.924 894.744 151.582 892.355C159.348 890.479 167.117 888.605 174.882 886.73ZM954.226 882.445C960.45 882.264 980.149 885.573 981.812 888.873C982.257 893.158 982.704 897.445 983.149 901.73C984.097 907.51 987.832 933.059 986.096 936.553C981.653 937.735 954.692 942.781 950.745 940.303C948.512 938.899 947.132 935.826 945.656 933.605C936.727 920.181 942.465 914.446 946.995 900.124C948.94 893.973 949.901 886.269 954.226 882.445ZM1290.34 877.891C1291.94 877.979 1293.54 878.068 1295.16 878.159C1300.82 886.108 1304.58 895.832 1309.35 904.677C1310.24 906.328 1314.31 911.135 1313.1 914.052C1311.79 917.188 1295.24 923.77 1291.14 925.571C1273.62 933.276 1248.2 943.207 1241.06 960.66C1236.75 960.722 1214.68 961.66 1212.94 960.124C1212.14 958.163 1212.56 955.821 1211.6 954.231C1207.28 947.094 1189.55 941.93 1181.07 938.427C1176.3 936.458 1166.89 934.632 1164.73 930.124C1163.37 925.326 1166.17 897.457 1168.21 896.373C1177.94 895.123 1187.67 893.872 1197.4 892.623C1219.18 888.873 1240.97 885.121 1262.75 881.372C1271.94 880.213 1281.14 879.052 1290.34 877.891ZM1329.97 873.874C1340.05 874.766 1350.14 875.659 1360.23 876.551C1369.87 878.14 1381.15 876.888 1388.09 881.105C1392.64 883.875 1395.87 888.713 1399.07 892.891C1401.02 895.436 1404.11 897.637 1404.69 901.463C1397.31 910.563 1389.61 919.706 1380.86 927.444C1374.27 927.114 1369.08 922.73 1363.99 920.481C1357.62 917.674 1351.08 914.841 1345.78 910.838C1341.87 907.898 1327.3 882.253 1326.76 876.015C1327.02 875.57 1327.29 875.123 1327.56 874.675C1328.37 874.408 1329.17 874.141 1329.97 873.874ZM795.411 869.854C800.836 870.358 805.515 876.003 809.338 878.694C815.497 882.801 821.658 886.91 827.817 891.015C829.233 893.255 834.563 926.229 833.977 929.589C827.249 933.044 819.168 938.436 810.944 939.499C805.053 934.053 799.161 928.605 793.27 923.159C788.462 919.414 782.262 916.173 778.54 911.373C775.682 906.731 772.825 902.087 769.969 897.445C768.15 894.463 759.867 882.958 760.596 879.765C763.865 874.133 788.151 873.321 795.411 869.854ZM660.433 858.605C669.448 862.979 678.466 867.355 687.482 871.73C697.122 876.194 706.766 880.659 716.406 885.123C721.788 887.491 728.021 889.44 732.474 892.891C735.689 897.443 738.903 901.998 742.117 906.552C745.257 911 753.624 920.256 754.167 926.107C742.118 933.872 730.063 941.643 718.013 949.409C713.818 953.159 709.621 956.91 705.426 960.66H664.18V960.392C664.807 956.732 665.43 953.069 666.056 949.409C669.354 938.875 676.771 929.258 686.679 925.302C699.55 920.164 716.001 935.998 724.44 922.892C725.601 921.09 727.185 917.72 726.316 914.052C723.752 903.243 693.868 893.819 679.18 898.784C667.26 902.813 657.213 912.675 650.523 922.087C647.756 926.463 644.988 930.838 642.22 935.214H628.562C616.131 935.214 600.889 936.565 589.996 933.874C589.64 933.428 589.283 932.982 588.925 932.534C588.935 926.921 593.573 897.405 595.621 894.767C597.775 891.991 605.268 891.856 609.012 890.748C612.132 889.825 616.504 887.463 620.796 888.337C627.082 889.616 642.422 896.567 649.185 893.695C651.52 892.703 652.935 890.673 653.736 888.07C656.662 878.586 646.825 875.878 641.685 872.533V872.266C647.406 867.132 653.978 862.988 660.433 858.605ZM444.841 852.98C448.884 853.537 451.074 856.316 453.678 858.337C466.048 867.938 471.88 880.418 478.318 896.105C479.629 899.3 485.467 909.863 484.21 913.516C482.83 916.311 479.084 918.318 476.711 920.213C469.839 926.194 462.962 932.177 456.088 938.159C452.874 940.653 450.357 945.094 445.108 945.391C432.823 940.683 410.416 929.136 402.258 920.481C402.421 914.618 413.141 898.248 416.72 894.767C422.152 896.129 435.671 910.254 440.824 914.32C443.999 916.826 449.473 921.359 455.018 917.534C458.857 914.885 458.762 907.336 456.088 903.606C448.704 893.297 435.817 886.722 429.576 875.48C430.344 869.092 440.507 856.535 444.841 852.98ZM892.629 844.407C898.296 846.038 902.972 853.144 906.822 856.998C909.678 859.854 924.125 872.703 924.766 875.48C925.742 879.704 922.079 886.469 921.017 889.945C919.048 896.381 918.183 904.656 914.589 909.767C911.689 913.891 889.771 917.624 883.255 919.41C877.249 921.055 868.555 925.134 861.831 923.963C859.267 918.673 853.998 896.107 856.474 888.873C858.419 883.187 864.759 878.434 868.257 873.874C875.977 863.81 883.515 853.101 892.629 844.407ZM98.0197 831.819C105.284 832.28 115.595 858.349 118.641 865.301C119.734 867.795 125.987 878.091 125.068 881.105C121.052 886.372 117.034 891.641 113.017 896.909C102.855 910.731 90.2552 933.479 71.5056 937.892C51.7418 942.543 27.9698 923.523 20.3529 914.052C17.5561 910.575 12.2397 907.879 11.7829 902.266C13.768 899.196 17.0076 894.943 21.4243 894.498C33.7417 901.105 46.0641 907.713 58.3828 914.32C63.2588 916.467 71.1875 918.289 74.4513 913.249C78.3501 907.229 73.955 901.339 70.1657 898.784C63.596 894.353 44.2954 885.363 40.7071 879.765C59.8092 863.785 78.9163 847.799 98.0197 831.819ZM0 824.318C10.798 827.649 23.0187 827.168 35.8858 829.139C43.5752 830.319 52.1668 828.118 58.9185 830.212V831.283C39.3596 845.792 21.0057 862.628 0.265943 876.015H0V824.318ZM1107.95 818.426C1112.41 818.674 1134.01 828.606 1135.27 831.283C1137 835.194 1137.37 861.581 1136.34 867.177C1135.89 867.533 1135.45 867.891 1135 868.248C1129.05 869.872 1100.6 868.853 1096.97 866.641C1095.87 860.952 1095.65 826.939 1097.77 823.782C1099.69 820.948 1104.93 820.201 1107.95 818.426ZM627.759 815.479C630.457 816.223 640.42 832.258 640.613 836.104C626.769 846.589 618.081 860.64 596.692 863.961C591.695 864.738 587.066 861.151 584.105 859.408C573.493 853.166 560.435 848.088 551.967 839.586C549.62 837.231 546.251 830.927 548.754 826.461C578.394 822.175 605.924 827.795 627.759 815.479ZM1262.48 805.568C1266.38 806.153 1268.26 809.444 1270.78 811.462C1275.76 815.44 1295.06 830.034 1297.03 834.764C1298.35 837.943 1296.94 846.515 1295.69 848.694C1284.98 849.943 1274.27 851.193 1263.55 852.444C1241.92 856.504 1220.47 859.132 1199.81 863.961C1193.25 865.497 1170.27 869.893 1164.46 866.641C1163.39 858.795 1163.18 830.548 1166.07 825.39C1179.81 825.569 1193.57 825.747 1207.31 825.926C1215.68 827.158 1228.89 827.665 1236.24 825.39C1244.96 822.687 1255.9 811.458 1262.48 805.568ZM490.637 799.943C496.561 801.387 500.264 808.794 504.564 812.265C508.491 816.192 512.42 820.122 516.348 824.051C522.583 833.976 525.081 847.534 529.471 858.873C531.619 864.421 534.898 870.273 535.631 876.82C529.556 883.231 522.05 888.25 514.741 893.427C512.241 895.196 509.511 898.572 506.171 896.373C498.805 876.684 490.002 861.398 478.05 846.55C476.164 844.208 463.399 833.484 463.855 831.015C464.518 827.432 470.052 823.772 472.158 821.105C477.83 813.911 483.612 805.779 490.637 799.943ZM792.198 792.174H793.001C793.27 792.354 793.537 792.532 793.805 792.71C793.906 801.724 791.501 810.239 789.787 818.157C788.27 826.997 786.752 835.837 785.234 844.676C782.291 846.11 768.43 851.284 764.88 850.032C764.344 849.587 763.809 849.14 763.273 848.694C763.096 837.618 765.612 826.627 767.558 816.551C768.685 810.721 768.188 803.754 770.773 799.407C777.912 796.996 785.057 794.586 792.198 792.174ZM170.062 790.835C167.044 792.111 164.738 792.308 163.099 794.855C160.898 798.27 161.492 805.857 161.492 811.193C161.491 824.116 161.219 838.606 176.757 835.301C186.922 833.139 185.595 822.1 185.595 809.854C185.417 805.479 185.238 801.103 185.059 796.728C183.123 791.334 177.669 790.658 170.062 790.835ZM727.922 790.301C731.665 790.468 743.197 799.03 743.723 801.817C742.117 813.066 740.51 824.319 738.903 835.569C737.499 843.575 738.47 853.943 734.886 859.944C730.348 860.792 725.318 857.392 721.762 855.926C710.204 851.158 695.213 847.043 687.214 838.515C687.68 832.792 695.627 827.29 698.997 823.782C708.638 812.624 718.281 801.46 727.922 790.301ZM1295.96 781.728C1296.32 781.908 1296.67 782.086 1297.03 782.264C1297.12 789.228 1297.21 796.193 1297.3 803.157H1297.03C1292.83 799.408 1288.63 795.658 1284.45 791.907V790.835C1288.24 788 1292.22 784.809 1295.96 781.728ZM1325.42 781.46C1338.42 781.242 1350.35 783.353 1361.84 785.479C1366.81 786.398 1372.46 785.723 1376.57 787.621C1382.55 792.621 1388.53 797.623 1394.51 802.622C1407.21 811.641 1422.95 819.888 1439.77 824.318V876.551C1437.09 877.54 1429.73 884.294 1426.92 883.517C1423.19 882.487 1419.29 874.693 1417.01 871.73C1410.24 862.9 1402.33 853.203 1389.42 850.568C1373.28 849.32 1357.1 848.069 1340.96 846.819C1335.43 845.943 1329.4 846.673 1325.42 844.407C1323.79 838.292 1325.14 830.587 1324.08 823.514C1322.52 813.124 1321.77 793.537 1323.82 783.068C1324.35 782.532 1324.88 781.995 1325.42 781.46ZM826.478 775.033C831.436 775.269 835.276 780.835 837.725 783.871C845.145 793.068 855.46 802.619 863.704 811.462C865.266 813.136 874.04 821.219 873.614 823.514C872.761 828.094 857.546 844.83 854.062 849.497C851.09 853.48 843.677 865.7 838.53 866.372C833.551 863.986 811.718 850.035 810.408 845.747C809.324 842.193 812.251 831.702 813.087 828.336C815.855 815.57 818.623 802.799 821.39 790.032C822.8 784.427 822.922 778.422 826.478 775.033ZM1075.28 774.228C1079.2 774.978 1088.59 794.622 1089.21 799.943C1078.13 807.64 1061.92 810.002 1049.57 816.282C1045.45 818.373 1039.84 822.466 1042.61 829.408C1047.19 840.895 1062.43 829.728 1071.26 831.819C1071.38 840.974 1070.93 849.802 1069.65 858.069C1069.39 861.103 1069.12 864.14 1068.85 867.177C1068.67 867.444 1068.49 867.712 1068.32 867.98C1053.86 866.73 1039.39 865.48 1024.93 864.229C1020.66 863.502 1012.07 864.353 1010.2 861.283C1007.94 857.585 1017.57 837.619 1019.04 834.764C1023.34 826.389 1029.57 821.05 1035.11 814.139C1046.93 799.38 1060.34 785.9 1075.28 774.228ZM238.355 765.12C245.977 764.985 261.685 765.158 266.476 768.067C266.119 782.888 265.761 797.713 265.405 812.532C265.403 818.721 264.205 827.421 265.94 832.621C267.665 837.789 272.201 842.263 275.581 846.015C274.564 849.779 269.791 852.405 267.012 854.586C258.978 861.461 250.942 868.337 242.908 875.211C239.443 877.996 232.185 884.514 236.748 891.551C240.396 897.177 248.981 894.964 253.889 892.087C261.949 887.363 269.531 881.994 276.92 876.551C281.865 872.909 286.213 868.498 291.918 865.569C301.185 870.105 311.731 882.024 320.039 888.606C338.338 903.692 356.642 918.786 374.94 933.874C383.688 939.946 392.439 946.018 401.187 952.089C405.829 954.945 410.472 957.804 415.113 960.66H371.727C366.371 956.018 361.014 951.373 355.659 946.732C343.654 937.298 331.485 919.388 314.415 916.194C307.363 915.928 300.309 915.659 293.257 915.392H272.636C265.316 915.57 257.994 915.748 250.675 915.928C243.58 917.038 233.039 918.049 225.768 916.73C222.211 913.951 220.63 908.937 218.269 904.945C214.28 898.201 202.215 879.259 201.932 870.926C203.888 867.191 208.121 864.387 211.305 861.819C219.159 855.482 227.715 846.461 231.928 836.64C239.981 817.863 233.383 788.383 237.552 765.657C237.819 765.479 238.088 765.299 238.355 765.12ZM449.93 764.318C458.147 764.295 466.685 776.952 470.82 781.995C469.828 786.342 465.753 788.875 463.32 791.907C456.296 800.658 447.548 807.893 440.556 816.551C430.573 828.91 418.959 839.061 410.293 852.98C403.063 864.591 396.532 876.67 389.403 888.07C386.401 892.869 384.267 898.194 380.297 901.998C376.276 901.099 373.52 897.737 370.656 895.569C366.897 892.726 362.647 890.045 360.211 885.926C354.963 877.054 357.16 846.838 359.943 835.837C363.832 820.461 386.67 804.928 398.24 795.926C401.926 793.059 409.276 784.565 414.31 784.14C420.469 790.3 426.63 796.461 432.788 802.622C436.779 805.19 442.822 803.79 444.841 800.48C451.524 789.519 429.4 775.111 427.164 766.728C427.344 766.549 427.522 766.371 427.701 766.193C435.109 765.568 442.52 764.943 449.93 764.318ZM204.342 764.318C205.325 764.407 206.307 764.496 207.289 764.585C210.762 767.459 208.359 793.883 208.359 801.281C208.359 809.563 208.796 819.899 206.218 826.194C204.259 830.973 200.118 834.454 197.111 838.246C192.526 844.031 186.729 852.544 179.704 855.658C173.812 857.354 167.919 859.051 162.028 860.747C157.833 861.819 153.635 862.89 149.441 863.961C144.763 861.362 140.303 848.064 137.924 842.534C135.45 836.784 123.737 811.693 125.068 805.032C129.174 794.765 133.282 784.495 137.388 774.228C152.576 770.124 170.136 769.514 186.131 766.46C192.2 765.746 198.273 765.032 204.342 764.318ZM327.805 763.782C343.032 763.589 351.236 771.342 357.264 780.389C358.508 782.254 363.138 787.675 361.55 790.835C359.14 793.246 356.729 795.658 354.319 798.068C347.11 805.279 338.754 812.678 334.769 822.978C330.311 834.494 332.975 849.923 329.412 862.89H328.34C319.417 851.898 296.155 838.928 292.186 824.587C289.747 815.772 292.606 800.359 292.722 790.568C292.803 783.621 292.231 773.82 294.329 768.067C301.282 766.187 309.978 765.817 317.629 764.585C321.02 764.318 324.414 764.049 327.805 763.782ZM1204.63 747.174C1210.39 747.796 1213.77 754.081 1217.49 757.085C1226.97 764.746 1236.49 773.147 1244.54 782.264C1244.45 782.711 1244.36 783.156 1244.27 783.604C1242.36 787.792 1231.56 797.449 1226.86 798.871C1221.64 800.454 1201.65 799.183 1196.06 798.335C1187.78 797.08 1176.72 799.607 1170.89 795.926C1170.8 795.747 1170.71 795.567 1170.62 795.39C1170.73 770.915 1191.23 758.959 1204.63 747.174ZM891.289 739.405C899.353 739.332 911.594 750.941 917.268 754.942C939.199 770.409 961.5 783.697 975.919 806.639C983.458 818.633 990.165 837.195 975.919 847.891C968.097 853.763 950.241 856.333 940.301 850.301C931.631 845.04 920.933 833.54 914.589 825.658C903.491 811.865 889.602 800.207 878.434 786.282C873.951 780.691 854.916 763.539 854.331 757.085C861.752 746.033 878.794 745.482 891.289 739.405ZM1015.29 735.656C1017.7 735.576 1019.25 735.911 1020.64 736.728C1023.14 752.262 1025.64 767.801 1028.14 783.336C1027.64 785.628 1009.39 804.784 1006.72 806.639C1006.27 806.461 1005.83 806.282 1005.38 806.105C1000.76 795.184 993.064 783.855 986.096 774.764C982.574 770.17 975.752 765.132 974.312 758.96C972.595 751.604 982.649 743.351 986.632 741.013C991.958 737.888 1000.23 737.428 1007.25 736.192C1009.93 736.012 1012.61 735.836 1015.29 735.656ZM503.225 730.298C507.987 732.129 511.556 738.629 515.009 742.086C524.853 751.937 534.488 763.003 550.361 766.728C563.557 769.826 584.652 767.245 597.228 764.852C601.563 764.028 610.726 761.171 614.369 763.246C615.729 768.393 621.043 783.638 618.118 788.425C612.094 798.282 572.337 798.015 555.985 798.604C549.2 798.871 542.414 799.14 535.631 799.407C531.128 798.067 524.191 790.095 520.365 787.085C512.112 780.597 504.643 773.229 496.53 766.728C490.964 762.269 484.062 757.247 480.728 750.656C481.619 746.278 499.043 733.252 503.225 730.298ZM1065.1 729.495C1065.82 729.762 1066.53 730.031 1067.24 730.298C1068.3 733.596 1071.7 740.695 1070.19 744.763C1069.26 746.643 1048.64 763.526 1045.82 765.388H1045.55C1045.47 755.073 1044.71 742.847 1046.89 734.049C1051.67 730.978 1059.39 732.205 1065.1 729.495ZM99.3583 727.62C100.072 727.889 100.786 728.156 101.501 728.423C104.9 735.726 109.806 742.08 111.945 751.192C114.247 761 109.541 769.802 106.321 776.103C101.562 785.416 95.9456 792.951 85.967 796.996C70.0741 803.442 40.02 803.644 20.8886 799.675C13.9257 797.979 6.96033 796.282 0 794.586V757.888C6.42717 761.591 11.7257 766.12 19.8172 768.603C26.607 770.686 37.5298 771.24 45.2599 769.675C73.6509 763.923 85.8258 747.87 99.3583 727.62ZM1137.95 696.281C1143.53 696.324 1144.79 699.963 1147.86 702.441C1155.27 708.869 1162.68 715.3 1170.09 721.728C1172.95 724.024 1179.15 727.375 1179.73 731.638C1178.14 734.745 1173.61 741.662 1170.35 742.889C1168.03 742.709 1165.71 742.531 1163.39 742.353C1152.79 740.607 1132.23 738.756 1127.5 745.835C1121.71 754.522 1128.83 763.216 1135.81 765.388C1138.77 766.312 1145.79 766.507 1147.32 768.872C1148.62 770.87 1146.63 775.493 1146.25 777.443C1144.37 785.031 1142.5 792.622 1140.63 800.211C1140.36 800.389 1140.09 800.568 1139.82 800.747C1123.1 792.677 1108.14 783.659 1102.33 764.585C1099.9 756.608 1099.55 748.216 1097.77 739.405C1096.87 734.922 1092.79 715.176 1094.29 711.281C1096.1 708.241 1102.46 707.709 1106.08 706.46C1116.7 703.067 1127.33 699.674 1137.95 696.281ZM1363.45 686.371C1368.5 686.518 1367.42 694.821 1366.66 699.763C1364.84 711.571 1364.8 726.279 1365.59 739.405C1365.92 744.793 1367.7 751.995 1365.32 756.014C1356.77 757.743 1345.38 754.125 1337.74 752.532C1335.18 751.998 1330.24 752.343 1329.17 750.389V738.335C1329.97 727.622 1330.78 716.904 1331.58 706.191C1332.23 702.106 1331.08 695.403 1334 693.602C1339.62 688.385 1355.59 689.828 1363.45 686.371ZM80.3428 666.012C80.8785 666.279 81.4142 666.547 81.9499 666.816C85.7189 678.714 93.2518 696.016 83.0213 705.388C69.0116 705.102 31.7541 697.814 28.9229 711.013C25.2595 728.093 58.5278 722.63 70.1657 725.477C70.256 725.657 70.3451 725.834 70.4342 726.013C68.7431 736.409 47.1114 745.981 32.4043 742.889C20.4458 740.373 11.0067 734.243 7.4973 723.334C5.07073 715.79 7.08884 705.794 10.7115 701.102C16.8422 693.163 30.292 691.114 40.4386 687.172C55.1189 681.471 67.4566 673.813 80.3428 666.012ZM1439.24 649.94C1439.98 650.755 1439.98 675.905 1439.24 676.726C1433.55 683.347 1426.35 687.12 1422.63 696.014C1415.93 712.063 1420.57 734.103 1428.26 745.031C1430.94 748.245 1433.62 751.46 1436.29 754.674C1437.46 755.567 1438.62 756.46 1439.77 757.353V794.586C1421.03 786.459 1404.46 778.157 1396.93 758.96C1394.09 751.755 1394.86 743.86 1393.44 734.585V709.406C1394.87 700.294 1393.18 683.389 1397.47 677.529C1399.97 674.098 1407.07 673.024 1410.85 670.832C1420.61 665.188 1432.59 658.705 1439.24 649.94ZM441.091 647.53C441.538 647.619 441.985 647.709 442.43 647.797C446.57 649.742 448.704 657.03 451.001 660.923C457.606 673.243 464.214 685.567 470.82 697.887C472.274 700.748 477.977 710.46 476.711 713.959C473.577 722.626 452.766 740.222 437.341 736.46C432.571 735.296 428.028 730.479 424.218 727.889C420.831 725.584 416.151 723.393 414.041 719.852C414.886 714.749 425.374 706.168 427.968 698.691C431.727 687.858 426.695 669.826 430.647 659.047C432.509 653.97 437.125 650.613 441.091 647.53ZM410.026 614.85C415.968 615.149 420.665 623.634 423.951 627.172V628.512C415.388 634.191 405.391 644.095 403.061 655.833C399.714 672.701 407.196 691.023 395.296 699.763C387.507 705.481 380.137 695.011 376.013 690.924C366.229 681.229 355.227 673.098 343.072 665.743C339.495 663.581 333.972 659.479 327.27 660.923C313.369 663.919 317.849 689.503 315.486 704.048C314.406 710.701 315.17 718.558 318.432 721.728C320.031 723.282 322.379 723.996 325.663 723.87C337.972 723.4 335.478 701.962 337.715 691.46H338.786C352.354 703.87 365.926 716.281 379.494 728.691C386.01 733.512 392.528 738.336 399.044 743.157C402.573 745.645 406.643 747.501 409.221 750.924V751.996C400.41 758.307 393.414 767.575 383.779 772.889C380.161 771.685 374.675 759.949 371.994 756.55C365.152 747.874 354.333 740.864 342 737.799C331.999 735.314 317.035 736.502 306.916 738.068C304.089 738.503 295.913 739.452 294.596 737.799C292.424 735.072 293.699 722.11 292.989 717.442C289.721 695.959 292.544 672.295 290.579 649.673C290.12 644.382 289.747 624.554 291.918 622.351C303.562 626.454 314.247 631.891 327.805 634.672C354.866 640.223 378.793 628.603 396.634 620.744C401.098 618.779 405.562 616.814 410.026 614.85ZM652.129 612.44C657.477 612.94 671.332 622.862 674.626 626.369C673.706 638.5 668.633 652.51 671.68 667.084C677.106 693.024 693.213 709.722 715.603 718.78C722.64 721.629 733.683 725.109 744.526 723.334C752.107 722.093 759.011 721.104 765.416 718.78C769.043 717.464 772.405 714.946 776.664 714.495C779.714 716.366 781.183 720.569 783.093 723.601C788.09 730.745 793.09 737.89 798.09 745.031C800.29 748.135 804.292 750.898 804.785 755.478C794.979 762.842 782.645 766.134 769.969 771.013C766.267 772.439 759.156 776.361 754.436 775.033C749.575 773.662 745.321 767.804 741.581 764.852C732.03 757.085 722.475 749.316 712.924 741.549C702.704 734.033 691.883 726.46 678.376 722.264C673.094 720.622 664.714 719.625 660.433 722.8C655.624 726.362 656.35 735.389 660.7 738.87C666.145 741.995 671.593 745.121 677.037 748.247C688.271 754.947 699.879 762.048 708.372 771.549C708.018 776.119 703.681 779.085 701.409 781.995C693.887 791.631 685.358 800.219 676.769 808.783C674.617 810.93 668.643 818.675 664.985 817.621C661.944 815.936 660.339 811.524 658.558 808.514C654.212 801.172 649.804 792.962 647.042 784.14C645.703 778.693 644.363 773.246 643.025 767.8C643.203 767.621 643.381 767.442 643.56 767.264C643.738 767.442 643.917 767.621 644.096 767.8C653.199 774.317 662.307 780.836 671.413 787.353C675.442 789.719 682.181 789.85 684.804 786.013C689.995 778.426 682.097 772.593 678.109 769.139C669.45 762.264 660.788 755.388 652.129 748.514C647.901 745.494 640.76 742.394 637.936 738.068C635.901 734.948 637.624 710.275 638.472 704.852C639.097 694.406 639.721 683.957 640.346 673.513C642.503 660.4 644.076 647.245 646.773 634.939C648.417 627.443 648.655 618.335 652.129 612.44ZM490.37 605.743C490.816 605.922 491.262 606.1 491.709 606.279C502.063 625.742 512.42 645.211 522.775 664.673C523.653 668.638 519.641 671.889 518.222 674.048C513.187 681.716 508.3 692.669 501.082 698.155H500.011C487.928 681.205 478.776 660.674 468.677 642.172C466.76 638.662 458.356 626.507 459.303 622.618C461.159 617.225 484.234 609.09 490.37 605.743ZM810.944 604.404C817.407 604.268 838.984 605.586 840.672 608.958C841.386 616.278 842.101 623.601 842.814 630.921C847.241 658.769 838.435 680.656 823.264 691.726C819.758 694.284 807.773 702.822 801.036 700.299C797.923 699.133 795.096 694.393 797.287 690.388C803.596 678.843 815.516 667.452 812.015 646.458C808.856 627.507 800.893 619.876 790.323 608.958C790.59 608.6 790.858 608.244 791.126 607.886C794.518 606.993 797.912 606.1 801.303 605.207C804.517 604.94 807.731 604.671 810.944 604.404ZM252.013 603.6C255.048 603.779 258.084 603.957 261.119 604.135C264.682 612.003 262.458 633.762 262.458 644.584C262.726 663.956 262.993 683.336 263.262 702.709C264.467 710.784 266.005 729.121 264.602 736.996C260.992 738.647 232.816 735.633 231.392 733.513C228.61 727.45 231.799 709.816 230.589 701.639C230.41 690.121 230.232 678.601 230.053 667.084C230.141 655.657 230.232 644.225 230.321 632.797C231.35 624.082 228.154 610.874 231.928 604.404C238.622 604.135 245.319 603.868 252.013 603.6ZM133.104 598.243C140.683 598.132 147.391 599.635 153.994 600.922C163.275 602.172 172.563 603.423 181.845 604.671C188.772 605.907 197.988 605.122 203.004 608.422C203.089 638.101 199.602 669.074 202.201 699.227C202.74 705.504 203.533 731.33 201.665 734.316C187.614 738.434 171.389 739.522 156.404 742.353C148.504 743.844 141.549 744.837 140.067 736.996C138.507 728.747 155.247 717.255 159.617 712.887C173.278 699.241 180.845 685.578 176.221 656.369C174.2 643.593 179.038 630.598 168.722 626.369C142.253 615.516 155.496 665.093 150.779 680.209C148.399 687.835 130.254 703.922 123.461 708.334C117.814 706.802 115.268 685.57 113.553 678.602C111.767 670.032 109.981 661.457 108.197 652.886C107.288 648.94 104.691 643.223 105.785 638.155C107.146 631.853 128.24 602.293 133.104 598.243ZM612.761 592.083C616.309 592.554 622.029 596.764 622.938 599.85C623.953 603.297 621.948 608.398 621.332 611.101C619.636 620.297 617.939 629.495 616.243 638.691C600.712 652.976 585.175 667.264 569.643 681.547C565.67 684.748 554 692.913 555.985 701.102C557.554 707.58 565.121 710.329 571.518 706.46C584.728 695.924 597.943 685.387 611.155 674.852C611.422 675.03 611.69 675.209 611.958 675.387C611.155 686.635 610.351 697.888 609.548 709.137C608.27 717.366 609.14 726.045 607.405 733.513C602.111 736.986 592.579 736.263 585.176 737.532C578.733 738.635 562.341 741.148 555.181 739.674C546.602 737.907 528.654 720.672 525.454 713.155C527.742 707.326 531.964 702.705 535.362 697.887C543.842 685.868 552.481 674.233 561.072 662.531C571.963 647.62 582.857 632.706 593.746 617.798C599.785 609.292 605.295 599.225 612.761 592.083ZM748.276 580.564C752.745 580.609 768.873 591.662 769.701 594.761C753.882 606.095 739.571 617.767 731.939 637.351C728.564 646.013 727.213 659.473 734.35 664.941C736.628 666.687 740.317 668.159 744.259 667.353C759.248 664.283 755.62 646.34 762.738 635.744C765.652 631.405 771.2 627.327 777.2 631.457C785.478 637.159 786.877 652.626 782.557 663.601C776.838 678.126 756.884 699.102 734.082 694.941C707.17 690.029 689.631 663.525 701.944 631.457C710.813 608.358 728.695 593.064 748.276 580.564ZM571.518 558.332C574.238 558.723 588.926 573.259 588.658 575.475C584.731 581.367 580.802 587.261 576.874 593.154C566.555 608.608 555.514 628.04 542.325 640.564C540.047 640.4 539.871 639.453 538.577 638.423C536.88 635.476 535.184 632.529 533.488 629.583C529.56 621.369 525.632 613.152 521.704 604.94C520.019 601.09 517.515 597.491 517.151 592.35C520.052 587.031 528.613 583.976 533.755 580.833C546.206 573.217 558.903 566.158 571.518 558.332ZM874.952 547.617C894.768 548.509 914.591 549.403 934.408 550.296C942.94 551.582 955.202 548.541 961.725 552.171C964.356 560.825 969.46 568.91 970.563 578.688C970.384 579.046 970.206 579.404 970.028 579.761C964.123 581.838 956.16 580.503 948.602 581.636C933.086 583.961 915.134 582.706 898.254 582.706C889.771 582.707 876.834 584.112 870.935 580.833C869.515 573.565 870.831 552.523 873.614 548.153C874.06 547.974 874.507 547.795 874.952 547.617ZM1121.34 535.028C1139.83 539.029 1144.38 562.924 1153.75 576.814C1155.15 578.891 1164.36 589.497 1163.93 591.547C1160.89 595.92 1157.85 600.297 1154.82 604.671C1149.79 612.684 1145.59 622.008 1141.97 631.19C1139.21 638.176 1137.18 645.861 1135.54 653.691C1134.91 658.155 1134.29 662.62 1133.66 667.084C1131.76 670.036 1103.23 679.409 1097.51 679.674C1092.95 676.6 1094.29 664.033 1094.29 656.637C1094.29 638.031 1094.01 618.534 1096.7 601.725C1097.51 596.666 1096.28 587.49 1099.38 584.582C1108.75 590.743 1118.13 596.905 1127.5 603.064C1132.83 605.17 1137.75 601.472 1138.75 597.44C1140.63 589.893 1134.97 585.698 1131.25 582.706C1126.65 579.004 1105.98 562.866 1105.54 557.528C1108.71 549.466 1115.4 540.652 1121.34 535.028ZM0 529.136C5.89019 532.616 11.7829 536.1 17.6744 539.582C24.9935 543.064 32.3153 546.546 39.6357 550.029C39.5173 557.197 33.3358 563.322 30.2615 568.242C23.1167 579.682 15.5201 589.814 7.4973 600.118C4.9982 603.154 2.49783 606.191 0 609.225V529.136ZM1429.86 522.706C1433.17 524.759 1436.48 526.813 1439.77 528.867V610.029C1436.06 611.852 1432.43 617.557 1429.86 620.744C1423.96 628.077 1415.88 634.745 1407.9 640.029C1404.51 642.277 1398.98 646.867 1393.98 646.19C1393.53 645.654 1393.09 645.118 1392.64 644.584C1390.91 638.274 1392.78 619.903 1395.31 615.654C1398.8 611.993 1402.29 608.331 1405.76 604.671C1412.45 597.887 1419.15 591.099 1425.85 584.314C1430.4 579.771 1440.54 568.649 1429.06 563.153C1420.28 558.947 1414.08 569.271 1410.58 572.796C1399.06 584.401 1375.71 602.316 1371.75 619.671C1371.48 631.1 1371.21 642.531 1370.95 653.958C1369.28 656.087 1365.03 656.038 1362.1 656.904C1355.3 658.921 1340.43 664.579 1333.45 663.601C1327.43 652.175 1314.65 657.682 1309.61 665.743C1301.56 678.642 1303.91 707.391 1301.05 725.477C1300.52 732.887 1299.97 740.3 1299.44 747.71C1297.41 751.02 1291.27 752.865 1287.92 754.942C1285.31 756.566 1271.34 766.438 1268.37 765.657C1254.81 753.069 1241.23 740.476 1227.67 727.889C1228.37 723.163 1238.56 715.401 1241.86 712.085C1254.62 699.139 1267.39 686.19 1280.16 673.244C1288.45 664.764 1296.76 656.279 1305.06 647.797C1319.22 630.256 1337.35 615.234 1353.27 599.315C1370.41 582.173 1387.55 565.026 1404.69 547.885C1413.05 539.485 1420.78 530.378 1429.86 522.706ZM1000.56 522.439C1007.06 523.38 1017.34 532.276 1022.52 535.831C1034.57 543.687 1046.62 551.546 1058.67 559.403C1063.92 562.898 1069.68 565.654 1073.94 570.118C1073.54 578.112 1070.57 588.87 1069.12 597.707C1066.04 616.457 1067.35 639.443 1067.51 660.119C1067.87 669.136 1068.23 678.155 1068.58 687.172C1068.49 690.656 1068.4 694.138 1068.32 697.62C1066.8 700.034 1054.48 701.504 1050.64 702.441C1031.18 707.191 1008.79 706.788 987.702 711.013C968.695 714.821 961.473 731.258 949.942 742.621C943.038 742.196 930.176 730.43 925.034 726.549C922.434 724.585 918.491 722.84 918.071 718.78C922.177 708.334 926.284 697.886 930.389 687.441C932.058 683.168 932.27 676.735 936.818 675.387C953.031 670.582 960.936 684.306 970.831 688.244C978.402 691.258 986.006 686.868 988.238 681.816C992.516 672.134 985.292 664.386 980.472 659.583C973.018 652.157 957.234 640.214 940.032 643.245C936.729 644.137 933.425 645.029 930.123 645.922C927.408 646.201 924.523 644.038 920.749 644.851C904.069 648.449 906.102 672.173 900.395 686.905C891.553 709.732 868.864 716.282 847.903 726.817C844.645 728.454 830.187 737.134 827.281 736.192C824.395 734.859 819.354 729.75 818.98 726.013C819.247 725.657 819.515 725.298 819.783 724.941C824.619 723.384 829.12 720.202 833.174 717.71C852.716 705.695 864.967 690.21 870.132 663.601C872.489 651.462 870.019 637.383 869.597 625.296C869.464 621.485 867.548 612.684 870.4 610.832C878.165 610.921 885.934 611.012 893.699 611.101H944.585C949.049 611.012 953.512 610.921 957.975 610.832C963.099 609.96 982.658 609.445 985.56 611.368C990.244 614.468 993.266 622.881 996.273 627.708C1005.2 641.903 1014.13 656.104 1023.05 670.298C1026.6 675.606 1037.57 683.977 1044.21 675.12C1051.71 665.126 1034.04 640.828 1029.48 633.066C1016.76 611.382 1006.29 588.406 996.273 564.224C994.73 560.499 986.208 542.42 987.168 538.51C988.672 532.377 996.619 526.726 1000.56 522.439ZM94.0013 520.83C98.8328 521.642 103.361 529.721 106.053 533.153C109.691 537.788 114.229 541.867 117.301 547.082C123.917 558.308 117.255 572.988 112.213 580.564C102.541 595.098 90.9805 608.055 80.3428 621.547C72.4777 631.525 63.4357 641.747 53.0257 649.137C43.5281 655.88 32.0709 659.681 20.6201 664.673C13.315 667.859 6.67275 672.127 0.265943 676.19H0V649.406C7.17028 645.091 13.8176 636.837 19.013 630.386C32.2682 613.932 45.2803 597.75 56.5072 578.957C61.7738 568.511 67.0418 558.062 72.3085 547.617C78.1567 537.68 85.7151 528.401 94.0013 520.83ZM760.06 508.778C765.836 509.385 773.988 508.887 778.004 511.456C778.182 511.991 778.36 512.527 778.54 513.063C775.723 521.793 771.053 553.787 766.487 558.332C760.239 556.725 753.989 555.117 747.74 553.51C733.906 551.159 712.675 575.232 704.354 581.904C699.959 585.427 690.504 598.184 685.072 598.779C682.575 597.353 680.871 594.847 679.716 592.083C680.6 587.014 695.788 574.22 699.533 569.582C711.305 555.004 726.65 543.373 738.366 528.867C744.097 521.771 751.368 512.775 760.06 508.778ZM428.504 503.956C434.87 505.443 440.582 513.717 444.841 517.885C456.503 529.296 468.548 540.2 479.388 552.438C483.067 556.591 492.366 564.175 493.315 570.118C483.913 579.771 465.73 588.006 453.143 594.492C449.927 596.151 443.756 601.749 439.217 600.922C433.009 599.789 426.285 593.622 421.273 590.475C412.923 585.234 405.148 579.961 397.437 574.136C389.208 567.918 381.151 560.292 371.192 555.921C364.351 552.918 334.402 549.013 324.86 552.974C321.127 554.524 318.274 558.244 317.36 562.617C316.695 565.801 318.045 568.898 318.967 570.654C324.534 581.251 341.15 573.927 354.319 577.081C361.948 578.91 380.68 591.533 384.85 596.904V597.974C359.475 613.105 306.435 610.944 292.453 587.261C286.712 577.534 290.422 558.233 292.453 546.546C293.896 538.245 292.902 526.789 296.739 520.563C303.772 519.188 323.223 521.965 330.752 523.242C346.284 525.875 369.182 523.21 382.173 528.331C388.4 530.786 393.16 535.402 398.24 539.046C407.079 545.295 415.918 551.546 424.754 557.796C430.193 561.225 455.19 579.494 460.374 566.635C463.905 557.875 455.964 553.898 452.073 550.565C443.056 542.976 434.038 535.384 425.023 527.795C421.75 525.246 417.253 522.847 415.113 519.224C416.099 512.872 424.188 507.452 428.504 503.956ZM816.837 500.741C817.373 500.83 817.908 500.92 818.444 501.009C822.392 502.837 825.388 507.163 828.353 510.117C831.742 513.493 837.138 516.712 839.065 521.367C843.014 530.898 840.586 544.321 842.278 555.653C843.194 561.782 844.111 574.035 841.477 578.688C832.382 580.478 799.976 576.375 793.27 573.6C791.441 572.843 790.24 571.452 788.984 570.118C788.88 562.906 791.565 557.388 793.27 551.635C795.322 544.046 797.376 536.456 799.43 528.867C801.314 522.499 801.663 513.409 805.32 508.509C807.955 504.98 813.293 503.403 816.837 500.741ZM1312.03 498.332C1316.94 498.819 1329.71 510.24 1332.38 513.867C1330.56 520.302 1320 528.975 1315.77 534.225C1306.23 544.938 1296.67 555.654 1287.12 566.368C1282.56 570.921 1278.02 575.476 1273.46 580.028C1270.4 583.774 1256.34 599.684 1251.23 596.368C1249 589.337 1256.93 574.905 1259.27 568.242C1262.7 558.494 1264.64 546.794 1269.71 538.241C1272.56 533.437 1277.37 529.785 1281.23 525.919C1290.95 516.2 1300.54 506.274 1312.03 498.332ZM153.994 496.187C159.493 496.248 162.967 500.602 166.58 502.884C173.811 507.453 201.725 522.145 204.611 528.064C207.382 533.75 205.917 542.496 207.021 549.492C207.927 555.238 209.325 573.74 206.753 578.153C192.401 578.44 175.846 575.715 162.564 573.332C158.349 572.576 148.418 573.174 146.494 570.118C145.12 567.934 147.303 556.214 147.832 554.046C158.805 546.553 189.176 561.089 193.362 546.277C194.096 543.677 194.009 539.941 192.826 537.706C188.612 529.743 164.629 532.493 153.457 530.742H139.798C136.626 529.926 120.869 511.912 120.248 508.242C127.356 504.937 135.462 501.79 143.281 499.134C146.85 498.152 150.423 497.17 153.994 496.187ZM249.603 493.242C253.327 493.6 255.266 496.77 257.638 498.598C260.791 501.029 266.841 504.131 268.35 507.974C269.617 511.2 267.625 517.072 267.012 520.027C265.762 528.955 264.511 537.886 263.262 546.813C261.828 554.98 263.298 567.466 259.513 573.867C252.489 575.052 242.101 577.342 234.605 576.011C233.254 572.956 233.484 565.711 234.069 561.814C235.595 551.676 234.84 535.038 232.463 527.26C231.397 523.771 226.536 516.914 227.642 513.331C230.346 507.772 244.502 497.914 249.603 493.242ZM1394.51 487.884C1398.7 488.049 1410.28 498.421 1410.85 502.081C1384.09 530.124 1357.09 557.724 1329.71 585.118C1315.86 598.867 1302.03 612.619 1288.19 626.369C1276.95 637.796 1265.69 649.228 1254.45 660.655C1237.72 677.388 1221.52 694.704 1203.83 710.478C1198.37 710.288 1189.82 701.592 1185.89 698.691C1178.24 693.052 1166.75 686.35 1163.39 676.726C1161.27 670.652 1163.17 659.983 1164.19 654.228C1167.31 636.599 1172.01 626.02 1180 614.047C1182.08 610.92 1183.71 607.424 1186.69 605.207C1193.4 605.201 1227.89 617.061 1230.88 620.475C1230.7 628.186 1215.81 648.8 1211.6 655.297C1209.09 659.159 1204.11 666.429 1208.38 672.173C1211.49 676.346 1218.87 674.843 1222.31 672.173C1233.91 659.853 1245.52 647.529 1257.13 635.208C1274.44 616.727 1291.76 598.24 1309.08 579.761C1321.04 566.816 1333 553.866 1344.96 540.92C1360 522.233 1376.9 504.073 1394.51 487.884ZM562.145 481.723C562.59 481.902 563.037 482.081 563.484 482.259C563.751 493.597 564.019 504.939 564.286 516.278C564.495 519.622 565.205 526.868 563.751 529.136C559.913 531.634 556.074 534.135 552.235 536.634C540.99 543.705 529.41 550.243 517.687 557.26C513.224 552.261 508.759 547.26 504.297 542.259C495.191 532.975 486.084 523.687 476.978 514.402C473.726 511.149 469.291 508.446 467.337 503.956C469.659 498.323 475.727 492.327 480.461 488.955C484.277 489.559 486.008 492.859 488.495 494.848C494.743 499.845 511.654 517.536 518.49 518.957C525.489 520.408 528.901 513.639 531.881 510.652C541.721 500.791 551.47 490.74 562.145 481.723ZM41.2415 468.866C41.7772 468.955 42.3129 469.044 42.8486 469.134C49.1625 471.93 61.7827 487.462 66.417 493.242C68.0432 495.27 73.483 498.847 72.577 502.081C70.438 507.253 57.4119 521.006 52.7585 524.313C40.7058 520.536 30.0821 515.16 20.3529 509.044C17.1311 507.02 12.1329 504.971 11.7829 500.205C13.768 496.598 17.3321 494.444 19.8172 491.366C26.2749 483.369 33.5763 475.677 41.2415 468.866ZM1018.23 465.919C1022.96 466.097 1027.7 466.277 1032.43 466.455C1042.6 466.544 1052.78 466.633 1062.96 466.724H1075.28C1079.14 467.922 1079.98 475.817 1081.44 479.58C1084.93 488.603 1088.44 497.758 1092.69 506.099C1095.01 510.206 1097.33 514.313 1099.65 518.421C1097.41 523.9 1086.88 537.72 1081.97 540.385C1076.32 539.396 1071.11 534.323 1066.71 531.545C1054.48 523.832 1042.57 515.853 1030.55 508.242C1026.21 505.492 1015.98 500.154 1013.41 496.187C1011.85 493.768 1015.49 467.738 1017.16 466.455C1017.52 466.277 1017.88 466.097 1018.23 465.919ZM954.495 461.901C962.189 461.764 982.968 463.278 987.702 465.919C988.001 488.653 981.495 501.242 971.635 513.867C969.413 516.71 966.722 520.62 963.064 521.903C959.404 521.991 955.743 522.081 952.083 522.17C941.194 521.903 930.3 521.634 919.411 521.367C909.536 519.862 896.328 522.465 889.414 517.885C889.504 517.349 889.593 516.813 889.682 516.278C892.701 509.883 901.707 504.262 907.091 499.938C923.008 487.149 935.69 471.968 954.495 461.901ZM1323.55 455.74C1332.58 455.662 1365.03 454.725 1370.15 457.615C1371.43 460.653 1377.07 465.821 1375.77 469.67C1373.92 473.671 1369.59 476.288 1366.93 479.58C1362.07 485.613 1356.95 491.636 1350.86 496.456C1344.9 495.21 1332.58 482.754 1327.56 478.777C1325.56 477.194 1321.68 474.916 1320.86 472.349C1319.39 467.663 1321.84 458.187 1323.55 455.74ZM1221.51 448.509C1232.57 448.477 1232.34 457.98 1234.9 466.188C1239.5 480.938 1245.11 498.504 1241.59 518.421C1240.59 524.117 1241.36 534.305 1237.84 537.706C1237.66 537.528 1237.48 537.349 1237.31 537.17C1230.61 533.849 1219.57 520.108 1217.22 512.26C1214.77 504.064 1218.12 497.587 1213.2 491.634C1210.28 488.099 1201.95 486.516 1197.13 489.49C1190 493.896 1187.71 510.864 1190.98 521.367C1195.45 535.748 1207.94 545.92 1219.1 553.778C1223.29 556.732 1228.1 559.052 1231.68 562.617C1231.62 567.718 1228.96 571.451 1226.86 574.672C1224.78 577.874 1222.18 582.531 1218.02 583.511C1206.02 586.34 1182.95 571.523 1178.39 565.832C1171.83 557.649 1166.06 548.744 1163.12 536.903C1155.82 507.485 1168.58 471.939 1184.55 459.758C1191.37 454.557 1201.63 452.383 1211.33 450.115C1214.72 449.579 1218.11 449.044 1221.51 448.509ZM1438.97 443.954H1439.77V472.883C1436.75 475.651 1433.7 478.419 1430.66 481.188C1426.64 480.158 1411.48 465.919 1408.17 462.437V461.366C1414.1 457.167 1420.75 453.264 1427.46 449.848C1431.3 447.883 1435.13 445.918 1438.97 443.954ZM346.553 443.687C351.855 443.659 356.038 447.718 359.676 449.848C368.869 454.4 378.067 458.955 387.261 463.509C391.86 465.536 397.222 466.761 400.116 470.473C401.849 472.695 409.225 481.946 408.686 484.401C407.848 487.461 397.673 498.422 394.76 499.402C390.057 500.984 380.921 499.34 376.28 498.598C361.1 496.173 345.779 496.761 331.287 494.313C323.505 492.998 308.545 493.758 302.899 490.295C298.944 487.869 292.779 477.186 290.579 472.616C292.016 468.089 300.807 465.912 305.04 464.045C318.877 457.26 332.716 450.472 346.553 443.687ZM9.10441 439.133H9.90733C13.2106 441.41 15.2682 445.884 16.8715 449.848C16.1144 455.086 3.91534 469.17 0 472.08V443.42C3.03353 441.99 6.06961 440.561 9.10441 439.133ZM207.289 432.437C207.913 432.526 208.537 432.615 209.164 432.705C212.276 434.338 212.866 439.5 214.252 442.884C217.954 451.928 226.616 465.975 227.911 475.562C225.878 479.482 210.287 494.598 205.414 494.848C195.623 491.088 177.509 482.226 173.811 472.883C171.945 468.168 172.35 462.405 171.401 456.812C170.635 452.302 169.221 445.978 170.062 441.275C175.508 434.97 198.443 436.463 207.289 432.437ZM767.023 432.169C771.47 432.756 775.132 438.587 778.271 441.008C786.145 447.081 794.022 453.399 802.643 458.687C806.081 460.795 811.524 462.243 813.623 465.652C808.884 473.871 788.708 489.872 774.254 480.919C770.648 478.687 759.851 452.205 761.399 445.026C762.385 440.448 764.97 435.962 767.023 432.169ZM628.562 566.635C624.626 566.221 622.047 563.18 619.456 561.277C613.224 556.704 597.314 547.479 594.818 540.385C594.104 529.225 593.389 518.062 592.675 506.902C592.497 500.028 592.317 493.151 592.139 486.277C592.139 465.087 593.662 447.472 599.371 432.705C600.62 429.312 601.87 425.918 603.121 422.526C604.983 419.89 618.768 413.129 622.938 412.615C626.582 415.421 636.081 422.748 636.865 427.616C631.414 436.139 623.755 442.176 621.063 453.597C619.242 461.327 620.528 472.228 620.528 480.919C620.526 499.643 620.226 517.659 623.206 533.689C624.991 544.67 626.777 555.654 628.562 566.635ZM684.536 406.722C686.349 406.93 686.417 407.504 687.482 408.33C689.094 411.656 701.014 423.992 700.069 427.347C694.981 434.222 689.892 441.098 684.804 447.972C677.392 459.216 674.164 472.93 673.556 491.366C673.225 501.368 670.637 516.64 678.109 520.294C685.293 523.809 691.397 517.281 693.106 513.063C695.516 499.671 697.927 486.276 700.337 472.883C702.572 465.531 707.132 461.032 711.317 455.74C713.748 452.667 715.903 448.927 719.352 446.9C722.818 448.631 735.545 457.368 736.76 460.563C737.653 465.383 738.545 470.206 739.439 475.027C740.197 478.058 743.575 484.855 742.117 488.152C734.708 495.83 727.297 503.51 719.887 511.188C707.39 524.581 694.89 537.975 682.393 551.367C676.089 559.181 668.71 568.913 660.433 574.672C655.887 568.913 653.765 543.633 651.861 533.956C649.792 523.426 649.956 511.737 648.113 500.474C648.024 495.295 647.934 490.115 647.845 484.937C646.619 477.139 646.286 463.273 648.38 456.276C650.316 449.811 654.796 444.941 658.289 439.936C666.378 428.349 674.478 416.36 684.536 406.722ZM547.146 403.507C552.969 403.773 573.273 408.859 575.802 412.079C572.696 422.371 569.568 436.535 564.286 445.026C548.755 460.024 533.218 475.028 517.687 490.026C513.788 489.522 500.202 475.34 498.404 471.813C503.057 462.035 511.947 453.637 518.222 445.026C528.153 431.402 537.024 416.89 547.146 403.507ZM102.84 403.507C108.566 404.393 112.61 410.569 116.498 413.686C122.193 418.251 139.763 432.214 142.21 438.33C142.656 441.811 143.101 445.294 143.548 448.776C144.612 454.556 148.064 465.773 145.155 471.009C133.997 475.027 122.835 479.044 111.677 483.062C108.603 484.144 102.403 487.982 98.5541 486.546C93.4592 484.419 77.1807 465.391 73.1127 460.294C70.8808 457.705 68.6476 455.116 66.417 452.526C65.3647 448.943 72.4523 442.096 74.1841 440.472C79.466 440.624 83.5354 444.309 87.5741 446.097C96.6785 449.759 105.787 453.419 114.891 457.079C120.761 459.151 129.739 460.776 133.104 455.205C136.915 448.892 131.662 443.479 127.747 441.275C117.699 435.619 96.3782 431.457 89.1812 424.132C90.1648 417.285 99.0237 408.419 102.84 403.507ZM1393.98 392.525C1404.55 392.411 1424.86 411.711 1428.79 418.776C1427.18 423.509 1400.9 436.332 1393.98 437.259C1382.09 426.048 1376.01 402.232 1393.98 392.525ZM829.157 392.257C817.038 396.71 803.561 397.829 793.805 404.579C790.93 406.568 787.483 411.93 790.323 416.901C792.382 420.504 797.113 422.067 802.643 420.65C810.472 418.646 833.267 412.383 836.923 406.989C841.805 399.786 835.731 393.019 829.157 392.257ZM741.313 372.168C741.938 372.524 742.562 372.882 743.187 373.239C746.851 386.7 745.974 417.298 739.17 426.811H737.563C727.775 420.599 715.462 405.325 711.317 393.597C715.341 384.972 732.673 377.057 741.313 372.168ZM297.275 369.489C300.042 369.579 302.81 369.667 305.577 369.757C314.415 376.095 323.253 382.437 332.09 388.775C334.355 392.085 334.279 397.428 335.304 401.901C336.086 405.307 339.524 413.975 337.179 417.704C334.617 421.778 320.211 426.951 315.217 429.49C302.989 435.472 290.756 441.456 278.528 447.436C273.225 448.885 265.347 447.399 260.316 446.633C255.406 446.455 250.495 446.276 245.586 446.097C241.316 438.045 237.725 429.176 235.678 418.776C235.052 410.83 234.427 402.883 233.802 394.936C233.067 390.37 231.686 375.929 233.535 371.899C254.778 371.096 276.03 370.293 297.275 369.489ZM386.457 369.222C387.171 369.489 387.885 369.757 388.6 370.025C393.794 383.092 402.801 397.615 412.167 406.989C415.169 409.993 428.724 419.538 429.576 422.526C424.436 426.479 411.558 439.851 405.204 440.741C401.963 441.194 397.849 438.338 395.563 437.259C389.053 434.183 370.551 427.832 367.442 422.526C366.192 416.634 364.942 410.739 363.693 404.846C362.788 400.963 359.54 392.94 361.283 388.508C364.364 382.378 381.012 374.709 386.457 369.222ZM805.588 361.453C809.917 362.156 813.182 364.543 816.568 366.274C829.949 373.113 843.277 380.727 847.367 396.811C851.011 411.136 844.014 440.322 834.781 443.42C829.511 445.186 822.367 441.381 818.711 439.936C804.128 434.174 789.746 425.866 780.95 414.222C779.037 411.692 772.097 403.314 773.183 398.686C774.159 394.522 779.319 391.53 781.753 388.508C789.158 379.315 796.75 369.237 805.588 361.453ZM1253.64 360.917C1259.77 361.232 1264.65 367.292 1268.64 370.293C1273.67 374.067 1280.84 377.762 1284.45 382.882C1290.02 390.815 1292.98 416.537 1294.89 428.686C1296.24 437.336 1293.8 472.243 1291.14 476.365C1288.56 480.377 1283.86 483.583 1280.16 486.546C1277.33 488.807 1274.92 492.988 1270.52 493.508C1266.27 486.868 1265.94 476.042 1263.82 467.527C1258.25 445.177 1255.65 420.648 1250.97 396.811C1249.72 386.812 1248.47 376.809 1247.22 366.811C1248.08 363.964 1251.74 362.828 1253.64 360.917ZM1029.48 357.971C1040.29 357.743 1050.59 359.204 1060.28 360.917C1063.83 361.546 1069.13 360.752 1070.73 363.328V379.668C1070.37 393.149 1070.01 406.634 1069.65 420.116C1069.65 424.359 1070.28 437.138 1068.05 438.598C1062.91 440.752 1032.42 439.883 1025.73 438.865C1022.07 438.309 1017.88 439.59 1016.09 437.259C1014.07 433.938 1015.02 418.143 1015.02 412.882C1015.02 401.245 1012.57 382.713 1015.82 373.239C1018.35 365.901 1023.91 362.282 1029.48 357.971ZM1206.24 353.417C1208.9 353.253 1211.44 353.13 1212.4 354.756C1215.52 358.097 1215.5 365.704 1216.69 370.828C1218.92 382.077 1221.15 393.33 1223.38 404.579C1224.19 408.112 1225.78 413.147 1225.26 416.901C1219.45 420.664 1207.39 422.443 1199.28 423.061C1196.61 419.141 1195.4 414.069 1193.39 409.401C1188.87 398.96 1181.48 386.935 1170.09 383.418C1164.3 381.634 1129.61 382.748 1124.02 384.757C1120 386.204 1116.6 390.048 1115.72 394.667C1110.44 422.443 1156.51 402.193 1166.34 415.294C1168.43 418.079 1174.39 429.11 1172.23 434.58C1167.94 439.312 1163.66 444.045 1159.37 448.776C1152.35 457.788 1146.97 467.954 1142.5 479.58C1139.86 486.45 1137.21 506.836 1132.59 510.652C1128.28 509.79 1124.56 504.567 1122.15 501.545C1116.29 494.207 1104.03 473.091 1104.47 461.366C1113.69 459.23 1136.8 455.032 1143.04 450.384C1146.05 448.137 1148 441.364 1145.18 437.259C1137.71 426.398 1108.41 442.538 1097.24 436.454C1095.98 430.94 1096.34 421.878 1096.44 416.097C1096.62 404.424 1095.71 390.601 1097.51 379.132C1098.2 374.73 1096.79 362.475 1099.38 360.649C1105.38 358.081 1114.02 359.603 1121.08 358.507C1140.54 357.257 1160 356.006 1179.46 354.756C1188.38 354.31 1197.31 353.864 1206.24 353.417ZM774.79 348.864C779.48 349.696 784.377 350.994 787.913 353.149V353.953C780.772 360.738 773.628 367.525 766.487 374.311C766.309 374.132 766.131 373.953 765.951 373.775C770.184 361.344 763.078 355.326 774.79 348.864ZM140.87 341.364C141.316 341.453 141.763 341.542 142.21 341.631C150.157 345.199 157.614 359.283 166.045 364.399C175.543 370.165 192.573 368.09 204.611 371.096C207.41 375.455 205.503 398.063 204.342 403.507C197.663 407.91 177.674 410.161 168.455 412.347C165.331 413.088 159.795 414.664 156.404 413.419C153.433 412.328 150.987 409.355 148.637 407.525C141.463 401.938 135.015 395.733 128.015 390.115C123.899 386.812 118.334 383.291 115.695 378.596C116.296 374.196 119.961 370.947 122.123 367.883C128.434 358.932 134.33 349.916 140.87 341.364ZM589.729 339.488C595.352 340.56 600.978 341.631 606.602 342.703C614.895 344.672 624.781 344.688 631.24 348.595C639.184 353.402 644.296 361.411 651.326 367.078C656.079 370.909 664.883 378.834 667.663 384.221C666.004 388.216 655.269 401.726 651.059 402.436C639.005 391.314 615.92 365.586 595.353 384.221C587.179 384.253 570.851 378.797 565.625 375.114V373.775C572.737 363.273 580.281 347.325 589.729 339.488ZM40.1714 329.578H40.9743C52.9354 339.577 64.9003 349.579 76.8613 359.578C79.0589 361.283 89.5935 368.912 89.9854 371.096C90.5008 373.984 81.6839 385.944 80.0756 388.508C69.1274 405.943 57.1319 423.117 42.0457 436.454C41.51 436.365 40.9743 436.276 40.4386 436.186C32.2885 432.252 35.6338 425.184 40.1714 420.65C47.8443 412.984 57.9488 406.211 64.2742 397.346C66.1193 394.762 67.7048 389.57 65.6128 386.097C62.4444 380.833 54.8161 381.747 50.3485 385.026C39.4346 393.032 31.7834 405.013 21.1558 413.15H20.6201C18.4837 410.423 11.3083 405.699 12.3174 401.364C13.231 396.947 17.6897 393.638 20.0844 390.382C25.5712 382.926 31.7376 374.774 35.6173 366.007C37.8173 361.04 39.3672 356.112 40.4386 349.935C40.3495 343.15 40.2605 336.362 40.1714 329.578ZM1390.76 327.435C1394.42 328.067 1396.89 330.588 1399.6 332.257C1407.7 337.253 1421.83 347.893 1431.21 349.935C1435.26 350.819 1437.57 348.532 1439.77 347.524V374.578C1437.01 377.703 1434.24 380.828 1431.48 383.953C1427.83 382.889 1425.6 378.893 1422.9 376.721C1417.82 372.626 1412.91 367.992 1406.3 365.471C1380.07 355.474 1360.46 386.488 1356.75 405.651C1355.31 413.079 1357.99 421.284 1356.48 428.15C1352.24 431.231 1324.02 428.106 1322.2 424.401C1316.91 414.307 1323.04 393.77 1326.49 386.9C1340.59 358.856 1363.45 342.395 1390.76 327.435ZM451.804 325.024C459.126 324.905 464.684 325.635 469.748 327.703C489.488 335.76 523.621 366.512 514.205 397.615C506.994 421.434 489.71 436.76 475.908 454.133C469.777 461.849 463.266 468.919 456.357 475.83C453.971 478.217 451.541 482.505 447.251 482.795C438.85 478.445 433.213 469.048 427.164 462.169C427.255 461.634 427.344 461.098 427.433 460.563C429.841 455.585 440.82 448.148 445.377 444.49C459.558 433.107 473.501 417.922 478.05 397.079C481.685 380.424 474.603 349.323 456.893 353.149C432.454 358.429 464.457 394.352 445.377 399.757C440.041 401.269 435.953 395.092 433.861 392.793C426.242 384.422 421.008 373.984 415.113 363.864C413.306 360.761 409.784 355.802 411.364 350.471C414.01 341.546 432.309 330.849 441.36 327.435C444.841 326.632 448.323 325.827 451.804 325.024ZM986.096 311.363C974.808 317.198 968.053 325.582 958.779 333.06C956.012 335.559 953.244 338.06 950.478 340.56C947.201 344.644 943.493 352.956 949.673 357.168C953.675 359.895 959.594 357.97 962.528 355.828C969.044 349.846 975.563 343.862 982.079 337.882C986.678 334.173 992.528 329.753 995.47 324.488C999.597 317.099 993.698 311.191 986.096 311.363ZM235.945 308.417C248.977 309.042 262.014 309.667 275.046 310.292C279.127 310.919 286.688 309.449 288.705 312.166C289.865 314.761 291.006 340.132 288.972 341.631C286.043 343.791 279.024 342.08 274.778 342.703C265.233 344.103 244.152 345.616 234.338 343.774C233.891 343.328 233.444 342.881 232.999 342.434C232.934 331.625 231.762 318.783 233.802 309.22C234.069 309.131 234.338 309.042 234.605 308.953C235.052 308.773 235.498 308.595 235.945 308.417ZM368.246 300.113C359.579 304.516 342.968 315.27 337.447 322.345C334.579 326.019 333.465 333.882 337.715 337.078C341.005 339.553 346.372 339.167 349.766 337.078C356.015 332.168 362.265 327.256 368.513 322.345C371.642 320.039 375.51 318.126 377.619 314.845C382.577 307.132 376.616 299.907 368.246 300.113ZM0 294.22C24.0354 306.122 16.5457 359.501 0 373.507V346.721C0.866541 344.663 3.11879 342.375 2.14027 338.149C1.81325 336.73 0.460628 335.642 0 334.667V294.22ZM1431.21 290.47C1434.21 290.769 1438.07 292.684 1439.77 294.488V333.596C1434.68 329.756 1429.59 325.916 1424.51 322.078C1419.02 318.213 1412.99 315.338 1408.45 310.56C1411.86 302.886 1424.86 296.014 1431.21 290.47ZM1111.7 280.56C1119.9 281.233 1127.4 286.906 1133.4 290.47C1147.65 298.951 1161.4 307.381 1174.64 316.72C1178 319.091 1182.33 321 1184.82 324.22C1184.73 324.577 1184.64 324.935 1184.55 325.291C1174.63 326.814 1162.43 326.797 1151.61 328.506C1145.18 328.775 1138.75 329.042 1132.32 329.309C1125.63 329.489 1118.93 329.667 1112.24 329.845C1103.02 331.268 1082.62 332.63 1073.4 331.185C1066.22 330.058 1044.72 332.173 1042.07 327.97C1040.65 324.591 1044.48 312.972 1045.82 310.827C1060.66 307.433 1077.12 310.102 1088.13 303.595C1097.92 297.811 1102.5 286.803 1111.7 280.56ZM836.654 273.327C842.865 273.393 848.707 277.476 853.795 279.488C862.462 282.913 871.47 284.927 881.917 286.721C886.098 287.437 901.799 286.399 904.145 288.327C905.038 291.451 905.93 294.577 906.822 297.702C908.758 300.915 912.795 302.112 915.125 304.935C913.601 308.485 905.449 322.354 902.538 323.684C890.845 329.028 852.553 323.739 856.207 342.434C859.549 359.548 884.824 343.538 895.842 349.4C899.003 359.647 906.214 369.383 911.644 378.06C913.99 381.811 917.853 385.547 918.071 391.187C914.68 395.025 911.286 398.865 907.895 402.704C902.296 409.752 895.359 416.126 890.754 424.132C888.209 428.559 888.949 435.506 892.629 438.062C896.845 440.99 902.221 438.343 904.948 435.919C913.249 427.08 921.553 418.239 929.855 409.401C935.185 412.406 939.444 433.532 934.676 439.669C927.713 445.829 920.748 451.991 913.786 458.151C906.377 464.846 898.966 471.546 891.558 478.241C881.649 486.544 871.738 494.848 861.831 503.153C856.143 502.913 845.874 489.37 842.814 485.205C841.702 483.691 837.419 480.325 838.262 477.438C838.785 475.643 853.886 461.741 856.474 458.419C868.404 443.099 878.91 415.157 870.668 388.775C863.435 365.626 845.904 352.855 826.745 341.631C819.106 337.155 808.406 334.425 802.374 328.239C803.728 321.895 809.65 315.998 812.82 310.827C820.554 298.209 827.791 284.927 836.654 273.327ZM953.422 263.951C965.027 264.577 976.634 265.202 988.238 265.827C993.057 269.653 995.802 278.306 999.219 283.506C1002.79 288.416 1006.36 293.327 1009.93 298.238C1011.9 300.38 1013.86 302.525 1015.82 304.666C1016.8 306.773 1012.21 330.908 1011 333.864C1009.38 337.849 1005.02 340.362 1002.17 343.239C996.127 349.328 990.599 357.466 988.506 367.347C988.328 372.704 988.15 378.062 987.971 383.418C988.061 394.756 988.15 406.097 988.238 417.437C988.15 423.418 988.061 429.401 987.971 435.383C987.792 435.651 987.614 435.919 987.436 436.186C982.831 436.311 966.533 434.815 964.939 432.705C963.42 430.333 963.566 426.712 962.796 423.597C961.011 417.348 959.226 411.096 957.439 404.846C951.623 389.761 943.828 376.413 935.479 363.864C932.792 359.825 924.735 349.374 926.374 342.167C927.469 337.349 931.027 332.726 933.336 328.775C938.774 319.471 943.898 309.566 948.066 299.31C948.958 295.917 949.852 292.524 950.745 289.131C952.229 280.852 947.985 268.175 953.422 263.951ZM50.6157 258.862C55.7577 259.806 63.6634 270.288 67.7556 273.595C79.3604 284.576 90.9678 295.561 102.573 306.541C107.292 310.355 116.125 317.84 118.91 323.15C117.432 330.147 107.608 341.435 102.84 345.918C96.6556 345.293 91.4729 337.961 87.3069 334.667C75.7912 324.935 64.2729 315.202 52.7585 305.47C49.8853 303.171 40.8127 297.042 39.9029 293.685C39.0656 290.589 41.5469 286.278 42.3129 284.042C45.0767 275.975 46.4077 265.808 50.6157 258.862ZM1359.16 252.969C1363.1 253.058 1367.02 253.147 1370.95 253.236C1374.7 256.183 1378.44 259.13 1382.2 262.076C1388.33 266.717 1395.12 270.783 1400.4 276.273C1400.32 276.809 1400.23 277.345 1400.14 277.881C1397.3 283.881 1385.48 291.93 1380.06 296.095C1364.19 308.272 1347.95 320.766 1332.38 333.328C1326.41 338.15 1321.03 345.486 1316.58 351.81C1313.83 355.717 1312.1 360.768 1307.74 363.061C1302.3 362.145 1298.65 357.574 1294.89 354.756C1285.23 347.533 1266.08 331.281 1271.59 311.631C1273.26 305.68 1280.09 301.378 1283.64 296.899C1291.41 287.614 1299.17 278.326 1306.94 269.041C1310.19 264.875 1313.51 258.533 1318.19 255.915C1324.08 252.617 1345.23 254.536 1353.81 253.236C1355.59 253.147 1357.38 253.058 1359.16 252.969ZM790.858 251.362C795.005 252.203 807.858 259.452 810.142 262.345C809.459 267.751 804.161 272.958 801.571 277.076C794.481 288.358 787.704 300.221 779.074 310.024C776.389 313.074 770.245 323.034 765.148 319.666C763.176 312.898 759.961 290.901 763.007 283.237C766.327 274.88 783.833 257.234 790.858 251.362ZM1063.76 248.147C1070.07 248.164 1083.92 260.069 1087.6 263.951C1086.88 266.733 1084.54 268.086 1082.78 269.845C1074.24 278.385 1065.23 280.706 1050.37 283.506C1046.38 284.258 1039.5 286.07 1034.84 284.576C1029.03 282.715 1020.7 267.282 1018.5 261.005C1018.77 260.469 1019.04 259.933 1019.3 259.397C1031.14 256.556 1043.79 254.211 1054.66 250.826C1057.69 249.934 1060.73 249.04 1063.76 248.147ZM600.442 245.469C616.866 248.058 633.295 250.648 649.72 253.236C657.574 254.694 669.653 253.45 675.698 257.256C675.723 274.602 674.355 293.343 671.68 309.489C669.837 320.627 672.678 328.737 681.322 330.381C692.122 332.436 694.562 322.535 696.32 314.845C698.194 302.971 700.07 291.093 701.944 279.219C703.001 273.755 702.666 267.395 705.157 263.417H705.426C709.937 264.089 733.905 280.435 735.153 283.773C735.867 295.022 736.582 306.275 737.294 317.524C737.974 321.994 740 336.446 738.366 340.56C736.541 343.892 730.617 345.515 727.386 347.524C719.71 352.435 712.03 357.346 704.354 362.257C700.89 364.565 697.356 368.499 692.57 369.222C682.93 359.936 673.286 350.649 663.646 341.364C659.903 338.341 651.027 330.912 649.185 326.632C643.123 312.548 656.079 276.983 641.685 271.987C619.344 264.234 626.518 301.262 623.206 315.381C622.76 315.737 622.313 316.095 621.868 316.453C616.675 316.533 599.789 314.254 598.032 311.631C596.53 309.392 596.673 301.324 597.228 297.702C597.674 285.917 598.121 274.13 598.568 262.345C599.038 256.731 597.581 248.749 600.442 245.469ZM1173.03 244.666C1177.24 244.909 1184.77 248.787 1186.69 251.63C1188.21 256.629 1189.73 261.631 1191.24 266.63C1194.25 276.346 1199.31 287.35 1199.81 298.505C1192.55 296.673 1177.84 284.311 1171.42 279.755C1169.05 278.071 1164.08 276.222 1163.39 273.058C1162.25 267.858 1170.78 248.32 1173.03 244.666ZM308.255 243.862C308.879 244.04 309.505 244.22 310.129 244.398C310.219 244.576 310.308 244.754 310.397 244.934C310.153 252.397 299.34 282.581 294.865 284.309C290.827 285.868 277.935 284.178 273.706 283.506C263.621 282.792 253.53 282.077 243.443 281.363C239.366 280.715 234.011 281.926 231.124 280.024C228.912 278.565 227.777 275.305 226.303 273.058C224.913 270.938 222.804 269.046 222.286 266.094C224.472 262.419 242.427 246.742 246.925 246.272C252.281 247.077 257.638 247.88 262.993 248.683C273.887 250.454 301.105 247.245 308.255 243.862ZM442.163 223.773C445.891 224.004 449.432 226.898 449.394 231.004C445.167 241.105 426.44 254.77 418.327 262.881C414.924 266.281 408.221 272.451 412.703 279.488C416.001 284.665 423.267 283.296 427.701 280.291C437.877 271.899 448.055 263.504 458.231 255.112C461.565 257.166 462.84 261.982 464.66 265.559C469.094 274.276 476.95 288.184 477.782 299.31C477.604 299.488 477.425 299.666 477.247 299.846C465.428 299.687 452.391 297.33 441.36 300.38C417.326 307.03 403.172 322.289 386.189 335.739C373.603 345.706 361.448 355.897 347.892 364.935C344.103 364.256 319.378 346.232 317.896 343.507C316.71 341.326 315.702 311.869 316.557 307.345C317.54 304.935 318.522 302.523 319.503 300.113C326.927 289.497 341.07 289.038 355.123 284.845C363.646 282.301 371.815 279.382 379.494 276.006C393.853 269.69 415.454 254.201 424.754 242.79C429.988 236.37 435.812 229.091 442.163 223.773ZM882.184 222.433C894.006 222.367 908.993 220.708 919.411 223.237C922.966 228.535 926.404 253.319 922.088 259.397C917.277 260.881 909.206 260.315 903.609 259.397C888.144 256.866 852.576 258.743 851.921 243.058C855.224 235.002 862.599 226.477 871.204 223.773C874.863 223.326 878.524 222.879 882.184 222.433ZM982.079 203.951H983.686C985.734 207.083 991.27 229.611 989.31 233.952C979.764 234.975 967.894 233.122 958.779 231.54C955.406 230.954 951.048 231.709 949.673 229.129C948.437 226.732 947.289 217.08 948.334 214.397C951.091 209.767 975.572 206.96 982.079 203.951ZM484.745 196.718C489.761 197.262 517.634 211.785 520.632 214.933C520.453 240.134 514.215 278.022 524.65 295.826C527.333 300.404 530.339 308.395 539.112 306.541C546.615 304.957 546.36 293.868 545.539 284.309V239.041C546.097 235.504 544.458 227.415 547.146 226.183C549.093 225.291 559.293 229.575 561.072 230.201C564.946 231.564 568.685 232.162 571.249 234.755C570.893 252.878 570.535 271.007 570.178 289.131C568.814 297.986 570.525 306.951 568.572 314.845C566.058 325.001 560.049 332.854 554.912 340.56C552.126 344.743 545.308 357.826 540.184 358.507C532.451 354.354 527.02 344.091 521.704 337.345C517.216 331.651 510.122 326.708 506.974 319.935C505.635 311.899 504.295 303.862 502.957 295.826C499.82 282.285 496.199 269.791 491.441 257.791C487.602 248.684 483.763 239.576 479.925 230.468C477.627 225.254 472.993 220.004 472.425 213.594C475.332 207.54 480.051 201.156 484.745 196.718ZM712.924 183.593C717.111 183.876 719.934 186.475 723.101 187.88C731.483 191.593 739.497 196.062 749.079 198.326C754.581 199.625 764.374 199.952 769.701 198.326C772.119 197.588 775.56 194.2 778.807 195.111C791.661 202.52 804.519 209.934 817.373 217.343C821.939 220.027 828.666 221.833 831.834 225.915C830.889 231.073 823.889 236.888 820.051 239.577C812.634 236.582 806.519 232.053 798.626 229.665C775.527 222.677 759.814 248.829 748.007 257.523C736.9 253.201 727.359 244.852 717.477 238.773C714.037 236.656 706.906 234.4 705.157 230.737C703.725 227.735 705.325 221.36 705.96 218.415C707.933 209.277 708.35 190.144 712.924 183.593ZM65.0771 181.45C69.5307 182.444 72.5019 187.681 74.987 190.825C84.7976 203.241 87.4469 206.431 83.557 227.522C82.4271 233.651 83.2707 244.608 78.7369 247.344C74.0416 246.378 58.197 235.746 56.7756 231.808C55.6737 228.753 55.9104 223.189 56.5072 219.486C58.1563 209.276 59.5649 187.4 65.0771 181.45ZM1323.01 175.558C1332.65 175.421 1360.79 176.517 1366.66 179.843C1369.19 188.512 1369.53 198.653 1371.48 208.236C1372.07 211.11 1373.96 216.693 1372.82 219.754C1370.99 223.352 1364.97 222.223 1360.23 222.968C1352.74 223.595 1345.23 224.218 1337.74 224.843C1332.75 225.636 1325.88 226.86 1320.86 225.647C1318.78 222.682 1319.09 216.427 1319.26 211.184C1319.88 199.844 1320.51 188.503 1321.13 177.165C1321.75 176.629 1322.38 176.093 1323.01 175.558ZM124.264 165.11C124.8 165.201 125.337 165.29 125.872 165.379C128.704 167.26 130.14 171.633 132.032 174.486C137.319 182.458 144.057 192.382 152.387 197.254C160.25 201.854 182.012 196.314 188.005 200.469C192.151 210.575 201.075 218.397 207.556 226.451C209.002 228.248 215.045 231.975 214.252 235.291C213.417 238.778 208.315 242.561 205.949 244.934C203.299 247.59 200.712 252.26 195.772 252.433C179.705 245.38 163.631 238.326 147.565 231.273C138.367 228.534 130.242 235.217 132.568 244.666C134.792 253.702 148.638 257.552 156.404 261.272C167.473 266.897 178.544 272.524 189.612 278.148C194.011 280.37 201.025 282.39 203.539 286.452C206.317 290.942 205.836 305.379 205.949 312.435C206.032 317.629 207.778 337.419 205.414 340.56C204.047 342.377 198.259 341.719 195.505 341.364C187.192 340.291 177.42 339.419 173.276 334.131C166.045 324.905 173.889 305.328 168.991 293.416C165.502 284.931 151.864 283.643 146.762 291.541C144.219 295.479 145.574 302.493 143.281 307.077H143.012C137.181 305.107 116.889 283.888 112.481 278.416C110.074 275.427 105.77 273.295 104.714 269.041C103.472 264.035 105.765 257.216 106.588 252.969C107.749 243.149 108.911 233.324 110.071 223.504C110.957 218.466 112.683 211.252 111.677 205.29C110.399 197.708 107.281 192.312 103.911 186.808C102.482 184.307 101.055 181.808 99.6255 179.307C99.2324 177.482 100.141 176.94 100.697 176.093C107.142 173.987 119.26 169.096 124.264 165.11ZM1234.09 164.04C1234.9 164.396 1235.7 164.754 1236.5 165.11C1237.57 169.319 1237.21 176.278 1236.5 180.647C1235.69 185.64 1235.97 189.645 1234.63 193.772C1230.77 205.644 1220.5 213.08 1209.99 218.415C1201.11 222.926 1185.82 225.808 1178.92 216.807C1175.75 212.666 1177.39 203.614 1178.39 198.058C1179.21 193.469 1179.45 180.712 1181.87 178.235C1184.64 175.406 1192.67 175.102 1196.87 173.95C1209.27 170.646 1221.69 167.342 1234.09 164.04ZM1047.69 160.289C1052.47 161.024 1056.25 166.994 1059.21 169.932C1061.63 172.333 1070.95 179.764 1071.53 182.789C1072.13 185.93 1067.76 194.79 1066.71 197.521C1059.98 214.934 1059.99 221.762 1040.46 226.988C1036.04 228.17 1021.24 232.932 1017.43 230.737C1015.21 221.785 1014.33 211.933 1012.34 202.344C1011.71 199.301 1009.59 193.216 1010.73 190.022C1012.43 186.607 1017.15 184.255 1020.11 181.986C1029.29 174.943 1038.63 167.685 1047.69 160.289ZM384.85 156.003C385.832 156.092 386.813 156.182 387.796 156.271C390.393 157.645 395.761 172.436 393.688 176.896C383.22 180.27 371.149 202.752 365.567 212.254C362.919 216.763 360.774 225.45 365.836 229.129C372.068 233.661 377.936 227.251 380.564 223.773C385.653 217.255 390.743 210.736 395.83 204.218C398.562 200.506 401.206 195.359 405.204 192.969H406.007C408.555 195.345 420.681 206.071 419.666 209.576C417.501 214.785 411.787 218.243 408.417 222.433C397.344 236.207 380.531 248.076 362.889 255.112C359.421 256.496 339.916 262.666 335.84 259.397C335.304 258.952 334.769 258.505 334.233 258.059C334.204 244.036 344.938 229.92 339.589 213.325C338.175 208.94 334.204 207.877 332.09 204.487C332.603 199.47 340.329 170.676 342.803 168.861C348.792 164.466 367.663 160.222 376.013 157.879C378.959 157.254 381.904 156.628 384.85 156.003ZM422.344 152.789C427.017 152.847 430.39 155.811 433.861 157.343C441.537 160.825 449.216 164.307 456.893 167.789C460.5 169.377 465.339 170.478 467.605 173.414C465.956 178.356 453.023 194.158 448.59 196.45C441.708 195.115 428.794 179.325 424.487 173.95C422.722 171.748 419.457 169.689 418.596 166.718C417.228 162.006 420.551 155.061 422.344 152.789ZM664.449 146.36C668.961 146.83 672.156 151.839 674.895 154.396C678.643 157.878 682.393 161.361 686.143 164.843C686.992 166.905 681.156 194.519 680.25 199.129C679.213 204.404 677.988 223.732 674.895 225.647C671.165 227.978 646.688 223.311 642.489 222.165C640.682 212.821 640.881 174.248 643.828 167.521C646.902 160.506 658.659 151.475 664.449 146.36ZM524.65 143.681C537.084 143.42 548.255 149.543 557.859 153.325C560.748 154.463 565.988 155.139 567.501 157.61C569.497 160.873 568.304 177.477 568.304 182.789C568.304 188.851 569.276 197.534 566.965 201.539C560.735 202.498 552.444 197.272 547.414 195.111C533.041 188.937 519.287 182.797 506.438 175.289C502.252 172.843 497.461 171.308 494.654 167.521V166.182C500.996 156.557 513.636 148.963 524.65 143.681ZM227.106 143.414C241.862 144.485 277.946 140.751 273.975 157.879C261.642 168.255 243.092 157.464 234.873 151.182C232.657 149.487 226.792 146.449 227.106 143.414ZM1113.04 128.414C1109.09 130.353 1105.55 131.731 1104.47 136.45C1102.11 146.732 1110.21 153.422 1119.47 150.378C1130.59 146.721 1127.88 127.902 1113.04 128.414ZM174.347 123.86C179.243 124.079 197.695 128.901 199.254 131.627C200.683 135.605 196.172 143.209 194.969 146.628C191.473 156.563 189.722 168.931 179.168 171.807C162.973 176.221 158.246 167.106 153.19 158.415C151.846 156.105 147.63 150.856 148.905 147.431C157.385 139.575 165.867 131.717 174.347 123.86ZM818.175 123.057C818.622 123.146 819.069 123.235 819.515 123.325C823.512 125.484 825.498 134.63 827.817 138.591C833.842 148.885 840.942 160.307 851.118 166.45C859.216 171.339 878.025 171.929 890.754 169.932C895.3 169.218 901.309 168.046 906.019 168.861C907.896 172.483 916.563 191.791 915.661 195.111C915.483 195.289 915.303 195.469 915.125 195.647C912.566 197.162 905.634 196.213 902.002 196.183C891.55 196.096 878.379 193.689 867.989 195.914C860.775 197.459 857.017 204.968 851.118 205.558C833.711 195.737 816.299 185.913 798.894 176.093C791.155 171.494 781.031 167.663 776.397 160.021C774.309 156.579 769.486 133.834 772.38 128.95C776.084 128.181 781.365 129.095 785.77 128.414C796.418 126.768 810.018 127.299 818.175 123.057ZM712.389 115.289C716.796 115.472 739.296 122.056 742.384 124.129C743.723 133.502 745.063 142.879 746.401 152.254C747.337 157.348 749.242 164.193 748.276 169.665C748.007 169.753 747.74 169.843 747.473 169.932C743.76 171.261 736.838 164.965 734.35 163.236C722.082 154.707 707.636 147.535 697.927 136.45C698.915 130.981 708.616 118.868 712.389 115.289ZM1230.08 111.807C1230.52 111.896 1230.97 111.985 1231.42 112.074C1232.33 114.175 1232.58 117.442 1233.02 120.11C1233.59 123.546 1235.06 131.93 1233.29 134.575C1230.77 138.345 1211.03 141.176 1205.17 142.878C1200.93 144.109 1188.68 148.877 1184.28 146.896C1182.45 140.731 1178.71 127.272 1180 120.11C1190.49 115.364 1206.4 115.428 1218.56 113.146C1222.4 112.7 1226.24 112.254 1230.08 111.807ZM961.992 111.54C967.602 111.602 976.731 117.52 981.276 119.842C995.453 127.092 1011.06 132.546 1023.86 141.27V142.342C1011.81 151.285 1001.81 163.622 988.773 171.54C981.92 175.701 972.921 177.579 964.939 180.378C961.143 181.71 946.506 188.286 942.978 187.075C938.648 184.751 936.892 175.238 934.944 170.468C933.663 167.331 928.469 157.587 929.319 153.592C930.23 149.319 935.014 145.592 937.354 142.342C944.776 132.032 952.162 119.463 961.992 111.54ZM1297.83 102.431C1298.63 102.609 1299.44 102.789 1300.25 102.967C1301.55 109.713 1300.24 118.474 1299.17 124.396C1296.46 139.518 1295.1 153.959 1292.48 168.325C1292.03 192.251 1291.58 216.185 1291.14 240.113C1289.74 247.671 1284.09 252.8 1280.16 258.059C1270.97 270.358 1251.06 298.769 1227.93 292.88C1221.68 284.147 1220.37 268.558 1216.95 257.523C1216.01 254.468 1213.21 248.782 1214.01 245.469C1215.63 242.445 1229.37 237.577 1233.02 235.291C1244.93 227.84 1255.87 216.333 1260.34 201.539C1265.5 184.469 1262.84 154.298 1261.95 134.306C1261.69 128.509 1259.21 113.469 1261.68 109.128C1273.73 106.897 1285.78 104.663 1297.83 102.431ZM1439.51 99.2175C1439.6 124.483 1439.69 149.755 1439.77 175.022C1421.87 171.745 1424.01 192.419 1421.3 206.629C1420.24 212.115 1418.09 221.348 1421.57 225.915C1422.83 227.568 1424.71 228.081 1427.19 228.594C1437.56 230.739 1435.83 220.399 1439.77 215.201C1439.69 231.807 1439.6 248.417 1439.51 265.023C1439.24 264.755 1438.97 264.487 1438.71 264.22C1433.12 262.034 1411.95 247.532 1409.25 243.058C1407.24 239.73 1407.34 234.983 1406.3 230.737C1404.16 220.291 1402.01 209.842 1399.87 199.397C1397.43 188.783 1392.41 172.949 1396.12 160.825C1399.22 150.665 1405.62 143.378 1411.12 135.647C1420.13 122.975 1430.47 111.663 1439.51 99.2175ZM443.501 95.1997H445.108C452.748 105.61 457.888 118.077 463.32 130.824C464.445 133.463 468.593 141.69 467.07 144.217C459.527 142.805 432.04 130.359 427.701 125.735C428.444 118.457 439.26 99.8399 443.501 95.1997ZM1117.86 89.5745C1123.55 91.3855 1127.21 97.8799 1131.52 101.361C1143.85 111.321 1150.82 122.058 1154.82 140.736C1155.64 144.55 1157.16 150.496 1156.43 155.2C1154.96 164.613 1129.87 171.456 1143.04 184.129C1146.07 185.647 1149.11 187.164 1152.14 188.683C1152.49 207.933 1147.87 225.318 1143.84 240.916C1142.17 247.387 1141.57 255.32 1137.95 259.933C1132.99 259.746 1128.86 256.095 1125.36 254.041C1115.33 248.16 1105.78 242.599 1096.44 236.362C1093.36 234.309 1086.04 231.479 1084.92 227.791C1083.94 224.582 1090.04 204.72 1091.08 200.736C1093.95 201.697 1096.27 205.235 1098.04 207.433C1104.11 213.772 1110.18 220.113 1116.25 226.451C1119.38 228.936 1126.27 231.162 1129.38 226.719C1135.45 218.038 1124.1 205.828 1120.54 201.005C1110.06 186.807 1097.22 175.041 1086.26 161.361C1083.13 157.453 1073.71 149.753 1073.14 144.485C1080.56 128.819 1092.62 117.288 1102.86 104.574C1107.21 99.1793 1112.23 93.6738 1117.86 89.5745ZM486.621 69.7526H488.227C490.637 72.6988 493.048 75.6451 495.458 78.5913C505.461 91.5089 515.079 99.4199 533.755 104.038C543.278 106.394 560.166 105.043 567.768 109.396C568.6 112.227 570.641 131.346 569.375 133.235C561.934 128.582 531.825 113.086 520.097 115.825C508.937 118.43 500.909 126.633 491.441 131.36C490.905 131.092 490.37 130.824 489.834 130.556C484.925 119.13 480.013 107.699 475.104 96.2713C473.765 93.353 469.071 86.8128 470.82 82.6104C473.171 76.9559 482.529 74.0746 486.621 69.7526ZM365.836 64.9317C387.976 65.8022 404.997 62.8776 415.381 77.521C419.522 83.3587 408.086 102.145 405.473 107.253C404.084 109.963 403.072 114.193 399.58 114.753C388.194 105.557 375.123 95.9557 366.906 83.6807C364.324 79.8233 360.042 73.2003 361.014 67.0736C362.356 65.344 363.528 65.8086 365.836 64.9317ZM1001.63 60.1095C1007.94 60.6657 1013.43 67.8143 1017.7 71.0914C1029.12 80.0192 1040.55 88.9509 1051.98 97.8774C1055.71 100.782 1061.36 103.654 1063.76 107.789C1060.92 113.309 1054.12 120.57 1048.5 123.325C1040.47 122.091 1032.68 115.827 1026 112.343C1008.81 103.372 990.009 95.4517 974.848 84.2165C974.937 83.7711 975.027 83.3244 975.116 82.8777C976.613 79.8143 980.301 77.7043 982.882 75.6451C989.207 70.5976 995.073 65.1913 1001.63 60.1095ZM237.016 55.2874C269.193 55.1257 305.174 52.7255 325.395 64.6632C335.362 70.5467 338.852 86.7708 344.946 96.5385C349.467 103.785 355.801 111.621 362.353 116.896C366.906 120.914 371.46 124.933 376.013 128.95C375.833 129.306 375.655 129.664 375.477 130.021C369.241 131.145 345.727 140.982 341.196 139.127C335.228 113.986 324.059 92.5296 300.22 85.2881C285.873 80.9292 255.217 87.0711 251.21 97.0743C250.098 99.85 250.296 104.08 251.21 106.717C256.981 123.368 285.809 106.028 299.149 114.217C309.058 120.301 318.733 143.26 315.486 161.361C313.406 172.958 310.128 183.703 306.916 194.308C305.935 197.546 305.458 213.383 303.702 214.933C298.991 219.091 290.121 219.068 282.545 220.289C252.053 225.21 232.561 212.838 219.341 197.79C212.122 189.575 207.715 184.849 213.448 173.414C214.64 171.036 215.192 168.278 217.198 166.718C226.526 171.85 232.513 179.891 243.979 184.396C266.299 193.166 292.126 188.085 295.936 165.646C297.012 159.299 294.361 153.8 291.918 150.646C285.011 141.729 256.682 130.411 244.782 125.199C240.337 123.253 230.289 120.833 228.178 116.629C226.563 112.704 228.392 105.72 228.981 102.164C230.141 91.4504 231.303 80.7345 232.463 70.0211C233.137 65.876 232.161 57.6876 235.141 55.8232C235.765 55.645 236.391 55.4668 237.016 55.2874ZM652.933 53.9485C657.457 55.4477 660.214 62.1509 662.842 65.7348C668.735 73.3237 674.627 80.9139 680.519 88.5029C683.336 92.1796 687.143 94.9413 689.089 99.4848C686.316 106.328 680.512 113.93 675.43 118.771C669.973 118.334 665.853 112.466 662.307 109.664C651.952 101.482 642.905 91.9009 633.65 82.6104C630.361 79.3078 623.962 75.1945 623.206 69.7526C630.698 62.3596 643.574 59.3663 652.933 53.9485ZM173.276 53.1455C180.532 52.9762 203.289 53.8543 205.414 57.4306V66.8063C204.011 75.5458 204.65 92.5704 200.594 98.6817C193.453 98.7835 177.847 96.1746 173.008 93.3251C171.54 87.4046 170.399 55.701 173.276 53.1455ZM1154.82 48.056C1171.07 50.5556 1187.32 53.0551 1203.56 55.5559C1210.2 56.9291 1219.25 56.317 1224.18 59.5737C1225.16 66.5734 1227.6 75.8805 1226.33 83.1462C1222.13 85.0718 1216.38 84.7714 1211.06 85.8239C1200.53 87.5204 1189.99 89.2169 1179.46 90.9133C1175.48 91.6998 1167.75 94.725 1163.12 93.3251C1158.57 91.9467 1142.14 73.1112 1138.22 68.681C1139.15 64.4761 1151.3 50.4245 1154.82 48.056ZM1439.24 39.2161C1440.5 40.5473 1439.83 56.2406 1439.77 59.5737C1435.7 61.5897 1423.91 76.4939 1420.5 80.7345C1410.81 92.7574 1398.78 102.817 1389.69 115.556C1382.45 125.715 1376.2 140.602 1367.46 149.039C1356.51 149.269 1346.06 147.745 1336.13 146.093C1332.11 145.423 1325.95 146.226 1324.35 143.146C1323.47 139.697 1324.78 129.258 1327.02 127.611C1331.22 126.182 1335.42 124.752 1339.62 123.325C1344.3 121.851 1348.22 119.365 1351.67 116.629C1368.99 101.004 1386.31 85.3759 1403.62 69.7526C1415.5 59.575 1427.37 49.3936 1439.24 39.2161ZM842.011 38.413H843.082C843.731 47.6742 844.475 61.0144 842.011 68.681C836.868 84.6874 819.839 93.7208 803.178 98.4132C795.377 100.611 777.213 104.332 768.63 99.7533C757.633 93.885 768.346 59.4261 772.111 53.9485H773.183C777.442 57.7984 782.15 61.8735 787.913 64.1274C809.93 72.7383 831.824 48.2928 842.011 38.413ZM542.325 30.9131C549.357 31.2911 560.146 45.1544 564.555 49.6622C582.853 68.6784 601.158 87.7011 619.456 106.717C624.813 112.341 630.169 117.968 635.525 123.593C637.078 125.16 640.994 128.191 640.613 130.556C639.529 134.192 635.811 136.446 633.65 139.127C626.77 147.673 618.134 153.662 615.975 166.986C615.617 179.127 615.261 191.274 614.903 203.415C614.226 207.922 616.251 215.419 613.296 217.612C611.108 218.393 595.135 213.168 594.282 211.718C591.961 207.388 593.974 190.144 594.014 184.396C594.371 163.863 594.729 143.322 595.085 122.789C595.086 112.717 596.108 100.495 592.408 93.8596C583.878 78.5684 555.275 82.3482 536.434 77.521C526.988 75.1004 517.679 65.8722 514.205 57.4306C516.05 54.2043 519.412 51.6768 522.239 49.3949C528.934 43.2352 535.631 37.0729 542.325 30.9131ZM115.16 29.8415C120.593 30.0808 143.44 45.1467 144.887 49.1276C145.422 60.4659 145.958 71.8067 146.494 83.1462C146.94 91.8055 147.387 100.469 147.832 109.128C146.697 114.566 140.993 118.259 137.388 121.45C125.044 132.376 111.513 142.481 94.8055 149.039C89.9765 150.935 81.0172 154.668 74.7185 153.057V151.985C93.9008 138.071 108.736 124.128 113.553 95.467C115.04 86.613 115.202 73.0386 113.82 63.8601V51.2695C112.863 44.8158 112.396 34.0668 115.16 29.8415ZM440.824 26.6268C445.453 27.2644 461.612 46.287 463.855 50.7338C462.86 54.1254 446.232 67.6539 441.895 66.002C436.695 63.8983 424.441 52.6237 421.808 47.7875C422.713 42.4665 436.761 30.483 440.824 26.6268ZM1392.91 12.1628C1400.21 15.1091 1408.13 21.4559 1413.26 26.894C1412.31 30.4092 1394.92 45.932 1391.31 48.8591C1371.75 68.0536 1352.2 87.2544 1332.65 106.45C1325.65 102.259 1328.96 85.4332 1332.65 80.4672C1345.68 65.3797 1358.72 50.2858 1371.75 35.1982C1377.83 27.6373 1384.6 17.3553 1392.91 12.1628ZM40.4386 12.1628C40.8852 12.4301 41.3319 12.6986 41.7772 12.9659C37.2231 21.6684 27.4761 27.706 21.4243 35.1982C14.3724 42.9654 7.31788 50.735 0.265943 58.5022H0V38.6803C7.40696 32.966 14.8177 27.2517 22.2272 21.5373C27.8769 17.531 33.8307 15.4947 40.4386 12.1628ZM79.5398 10.2869C84.8129 12.1896 83.7211 34.9221 84.8969 42.6981C85.075 51.3586 85.2532 60.0217 85.4313 68.681C85.4326 95.173 84.2098 107.71 72.577 122.254C69.476 126.129 65.1369 130.182 60.2571 132.163C50.8422 135.989 44.9355 126.165 47.4015 117.165C50.0342 107.555 60.0955 104.77 62.3999 95.7355C64.731 86.5901 56.656 78.6206 47.1343 80.4672C31.0479 83.5865 14.0937 114.821 22.4944 136.181C26.8704 147.307 35.9367 152.359 43.6528 160.021C43.3322 165.05 40.2185 169.538 38.5643 173.682C36.1772 179.658 34.7113 186.183 33.2072 192.969C28.774 212.981 27.0346 233.329 22.4944 252.433C20.7499 259.775 20.3389 267.708 17.4059 273.863C10.5245 273.039 5.93218 267.412 0 265.291V211.987C1.79671 206.01 7.71235 188.959 5.08727 181.183C4.08076 178.2 1.9125 177.026 0 175.022V98.4132C7.40696 89.9321 14.8177 81.4485 22.2272 72.9661C30.8863 63.3243 39.5466 53.68 48.2057 44.0382C57.6333 32.2316 67.9809 19.9898 79.5398 10.2869ZM991.185 4.39444C993.151 4.28499 994.664 4.39698 995.47 5.46476C997.222 8.29136 995.491 16.3385 994.935 19.6627C994.488 24.2151 994.041 28.77 993.595 33.3236C991.467 37.5629 975.418 48.5613 970.831 52.0726C969.368 53.1926 958.933 62.1382 957.708 61.7169C956.06 61.1493 952.248 51.6221 951.279 49.3949C949.42 45.1124 944.064 38.0885 945.656 31.4477C947.798 26.8049 949.942 22.1622 952.083 17.5195C953.313 14.6687 954.099 9.66967 956.636 8.14373C961.047 5.41894 976.245 5.8771 982.348 4.93023C985.292 4.75079 988.239 4.57261 991.185 4.39444ZM1050.64 1.71546C1053.28 1.62128 1053.86 2.05908 1055.19 3.05431C1058.32 8.23282 1061.44 13.4126 1064.57 18.5911C1071.89 30.1075 1079.21 41.6278 1086.53 53.1455C1088.23 55.6666 1098.05 67.8461 1096.97 69.7526C1096.07 71.9632 1084.61 85.4294 1082.51 85.0209C1077.51 81.0921 1072.51 77.1621 1067.51 73.2346C1056.6 64.9712 1046.29 56.1643 1035.64 47.7875C1031.85 44.8069 1025.82 41.4763 1023.32 37.3414C1021.42 34.1954 1022.5 7.37377 1024.39 6.00182C1030.35 2.24107 1043.76 4.7317 1050.64 1.71546ZM587.855 1.71546C599.101 2.07308 610.352 2.42943 621.599 2.78705C625.864 3.4323 631.746 1.83636 634.722 3.85864C636.977 5.39094 637.792 27.1206 636.865 31.9835C634.467 34.9335 608.334 48.5002 603.388 49.1276C598.309 45.7665 581.336 29.9752 579.285 24.7521C578.151 21.8657 581.493 4.90605 582.766 3.05431C583.737 1.64292 586.1 2.35307 587.855 1.71546ZM1439.77 0.643869V6.53762C1432.65 8.8997 1427.5 5.64166 1423.17 0.912403V0.643869H1439.77ZM1278.82 0.643869H1364.79C1363.67 4.20099 1345.32 25.7206 1342.02 27.4298C1332.11 25.6443 1322.2 23.8587 1312.3 22.0731C1308.23 21.2039 1302.37 19.0836 1297.03 20.1985C1293.23 20.9914 1289.65 23.9974 1288.45 27.4298C1281.95 46.2883 1313.94 45.7334 1323.82 51.5381V51.8053C1319.53 57.442 1311.26 68.4774 1305.06 71.6272C1297.64 75.4033 1284.03 75.9365 1275.07 77.7882C1269.22 78.9973 1261.35 81.7883 1254.98 80.7345C1252.67 75.7481 1254.34 67.7316 1253.64 60.9126C1251.83 43.0417 1255.98 24 1264.09 13.5017C1267.48 9.11351 1276.71 4.17299 1278.82 0.643869ZM1163.39 0.643869C1176.09 0.488603 1184.3 4.061 1194.46 7.07342C1197.34 7.92738 1201.66 9.96493 1205.97 8.94806C1212.6 7.38395 1209.97 3.30757 1212.67 0.643869H1240.52C1238.11 5.1975 1235.7 9.75239 1233.29 14.3047C1230.89 19.9885 1230.17 27.6296 1226.86 32.5192C1213.33 32.7063 1195.27 28 1182.94 25.2879C1176.16 23.7963 1168.33 23.5876 1163.12 20.4658C1161.59 14.9309 1163.12 7.01105 1163.39 0.643869ZM1135.27 0.643869C1135.59 27.6615 1132.4 35.1931 1117.86 47.7875C1117.33 47.6984 1116.79 47.6093 1116.25 47.5202C1112.08 45.4496 1109.35 39.6335 1106.61 36.0026C1098.4 25.083 1090.81 13.3655 1084.12 0.912403V0.643869H1135.27ZM926.641 0.643869C926.731 16.3563 919.379 22.7006 910.839 29.573C907.537 32.6974 904.234 35.8231 900.931 38.9488C896.696 42.3379 885.54 48.6453 888.878 57.9664C895.293 75.8729 915.951 47.4846 920.749 46.1801C924.499 53.5018 928.249 60.8235 931.998 68.1452C935.636 74.3202 940.22 79.9912 942.978 86.8955C942.165 92.4724 936.244 97.5605 933.336 101.628C924.371 114.174 912.65 136.724 896.914 141.539C882.739 145.875 863.882 143.528 857.01 134.842C854.379 131.519 843.824 115.986 845.225 110.199C846.13 106.46 851.813 103.641 854.062 100.825C860.314 93.0031 866.773 84.9445 869.328 73.5019C873.235 56.0141 867.738 35.8269 870.668 17.7881C871.488 12.7317 870.584 7.34195 872.542 3.59011H872.811C879.893 6.61144 896.884 24.0992 904.948 22.3404C907.704 21.7397 909.179 19.8256 910.304 17.5195C914.667 8.58535 905.171 4.9875 901.198 0.912403V0.643869H926.641ZM827.281 0.643869C830.745 0.5586 840.727 -0.701347 842.814 1.17966C846.022 8.31682 837.073 12.1628 833.71 14.8405C824.563 22.1202 818.089 33.2409 806.66 38.1445C802.711 39.8397 794.675 41.2511 790.858 38.413C785.379 34.3366 791.404 27.0098 793.805 24.2163C799.311 17.8071 806.245 12.3741 813.623 7.87647C818.175 5.46603 822.73 3.05431 827.281 0.643869ZM750.419 0.643869C760.774 0.732956 771.13 0.822044 781.486 0.912403C781.217 1.26875 780.95 1.62637 780.681 1.98399C777.914 4.39444 775.147 6.80488 772.38 9.21533C757.682 21.0143 746.139 39.4324 740.777 60.3768C739.974 65.3771 739.17 70.3775 738.366 75.3778C737.498 80.9037 739.227 88.2102 736.76 91.9849C731.346 93.5681 726.062 90.1612 722.297 88.2356C710.706 82.3062 701.779 75.99 707.3 57.9664C712.907 39.6653 723.633 21.825 737.029 11.09C741.491 7.60921 745.955 4.1259 750.419 0.643869ZM664.18 0.643869C677.839 0.732956 691.5 0.822044 705.157 0.912403C704.622 1.4482 704.086 1.98399 703.55 2.51852C700.718 8.80807 695.022 13.956 692.035 20.733C688.08 29.7041 686.476 39.6742 684.269 50.198C684 50.1089 683.732 50.0198 683.464 49.9307C674.442 35.6437 664.893 23.9325 664.18 0.643869ZM470.82 0.643869H519.294C520.284 3.28085 522.832 5.40621 524.382 7.87647C524.292 8.14373 524.204 8.41227 524.114 8.67953C512.626 17.2726 502.418 27.3458 490.637 35.734C484.65 32.8565 465.18 15.1893 464.66 8.14373C466.234 5.05114 469.295 3.48193 470.82 0.643869ZM234.338 0.643869H340.66C342.218 3.85228 364.87 19.7887 369.049 20.733C376.905 22.5109 381.979 15.0213 379.226 8.14373C377.923 4.88824 374.762 3.25667 372.53 0.912403V0.643869C387.989 0.470786 418.095 -2.69817 423.684 6.80488V7.60921C416.477 15.3598 409.192 23.4515 400.919 30.1088C398.14 32.3462 395.863 35.9046 392.349 37.3414C387.709 39.2377 371.272 38.1814 366.103 37.3414C354.501 35.454 343.581 36.6745 333.162 34.3939C320.798 31.6882 310.35 27.902 297.81 25.8237H254.156C248.627 25.8237 240.256 26.8215 236.481 24.7521C235.765 16.7165 235.052 8.67953 234.338 0.643869ZM205.949 0.643869C206.113 7.56467 208.52 20.6414 205.145 25.8237C199.425 26.4091 192.073 25.8912 186.399 25.0194C177.562 23.6627 167.827 25.2561 159.885 22.8762C154.059 21.1314 149.772 17.0524 145.422 13.769C142.355 11.4527 139.049 9.72567 137.121 6.26909C138.47 3.80519 141.059 2.21308 143.281 0.643869H205.949ZM0 0.643869H9.64011C9.4607 0.912403 9.28255 1.17966 9.10441 1.4482C6.06961 2.96523 3.03353 4.48353 0 6.00182V0.643869Z" stroke="#E6E6E6" stroke-width="0.752964" stroke-miterlimit="2"/>
</g>
<defs>
<clipPath id="clip0_50_11">
<rect width="1440" height="690" fill="white"/>
</clipPath>
</defs>
</svg>
