<svg width="148" height="161" viewBox="0 0 148 161" fill="none" xmlns="http://www.w3.org/2000/svg">
<path opacity="0.1" d="M136.212 68.2168C138.566 68.2169 140.823 69.1521 142.487 70.8164C144.152 72.4808 145.087 74.7381 145.087 77.0918V151.217C145.087 153.571 144.152 155.828 142.487 157.492C140.823 159.157 138.566 160.092 136.212 160.092H91.8369C89.4832 160.092 87.2259 159.156 85.5615 157.492C83.8972 155.828 82.9619 153.571 82.9619 151.217V77.0918C82.9619 74.738 83.8971 72.4808 85.5615 70.8164C87.2259 69.1521 89.4832 68.2168 91.8369 68.2168H136.212ZM115.523 145.145C112.21 145.145 109.523 147.831 109.523 151.145C109.523 154.458 112.21 157.144 115.523 157.145C118.837 157.145 121.523 154.458 121.523 151.145C121.523 147.831 118.837 145.145 115.523 145.145ZM118.463 6.0918C120.817 6.09183 123.074 7.02705 124.738 8.69141C126.403 10.3558 127.338 12.613 127.338 14.9668V59.3418H91.8379C87.1303 59.3418 82.6159 61.2123 79.2871 64.541C75.9583 67.8698 74.0879 72.3842 74.0879 77.0918V130.342H20.8379V125.248H56.4404V103.797H56.3379V103.717H11.9629C9.60914 103.717 7.35188 102.782 5.6875 101.117C4.02313 99.4528 3.08791 97.1956 3.08789 94.8418V14.9668C3.08789 12.613 4.02311 10.3558 5.6875 8.69141C7.35188 7.02704 9.60911 6.0918 11.9629 6.0918H118.463Z" fill="#E6E6E6"/>
</svg>
