<svg width="148" height="154" viewBox="0 0 148 154" fill="none" xmlns="http://www.w3.org/2000/svg">
<path opacity="0.1" d="M134.381 31.5058L106.661 3.78584C105.467 2.58484 104.047 1.632 102.483 0.982247C100.92 0.33249 99.2427 -0.00133782 97.5492 4.02922e-06H22.6667C19.2631 4.02922e-06 15.9989 1.35208 13.5922 3.7588C11.1855 6.16552 9.8334 9.42973 9.8334 12.8333V141.167C9.8334 144.57 11.1855 147.834 13.5922 150.241C15.9989 152.648 19.2631 154 22.6667 154H125.333C128.737 154 132.001 152.648 134.408 150.241C136.815 147.834 138.167 144.57 138.167 141.167V40.6175C138.168 38.9241 137.834 37.2471 137.185 35.6833C136.535 34.1195 135.582 32.6997 134.381 31.5058ZM52.1834 28.875C54.0871 28.875 55.9479 29.4395 57.5308 30.4971C59.1136 31.5547 60.3473 33.0579 61.0757 34.8167C61.8042 36.5754 61.9948 38.5107 61.6235 40.3777C61.2521 42.2448 60.3354 43.9598 58.9893 45.3059C57.6432 46.652 55.9282 47.5687 54.0611 47.9401C52.1941 48.3114 50.2588 48.1208 48.5001 47.3923C46.7413 46.6638 45.2381 45.4302 44.1805 43.8474C43.1229 42.2645 42.5584 40.4036 42.5584 38.5C42.5584 35.9473 43.5725 33.4991 45.3775 31.6941C47.1825 29.8891 49.6307 28.875 52.1834 28.875ZM42.4301 81.7483L51.8626 66.4125C52.8481 65.2484 54.216 64.4734 55.7211 64.2265C57.2262 63.9795 58.7701 64.2768 60.0759 65.065L70.2142 72.8292C70.5141 73.1231 70.9173 73.2877 71.3372 73.2877C71.7571 73.2877 72.1602 73.1231 72.4601 72.8292L82.1492 60.3808C82.7466 59.5634 83.5289 58.8989 84.4322 58.4416C85.3356 57.9844 86.3343 57.7474 87.3467 57.75C88.3264 57.8016 89.2812 58.0772 90.1378 58.5555C90.9943 59.0338 91.7297 59.7022 92.2876 60.5092L101.592 82.1333C101.805 82.6225 101.893 83.1571 101.848 83.6888C101.803 84.2206 101.626 84.7327 101.332 85.1786C101.039 85.6246 100.64 85.9905 100.17 86.243C99.6994 86.4956 99.1737 86.6269 98.6401 86.625H45.1251C44.5594 86.617 44.006 86.4596 43.5208 86.1688C43.0356 85.8779 42.6359 85.4639 42.3623 84.9688C42.0886 84.4737 41.9508 83.915 41.9627 83.3494C41.9746 82.7839 42.1359 82.2315 42.4301 81.7483ZM102.875 133.082H38.7084C37.4321 133.082 36.208 132.575 35.3055 131.672C34.4029 130.77 33.8959 129.546 33.8959 128.269C33.8959 126.993 34.4029 125.769 35.3055 124.866C36.208 123.964 37.4321 123.457 38.7084 123.457H102.875C104.151 123.457 105.376 123.964 106.278 124.866C107.181 125.769 107.688 126.993 107.688 128.269C107.688 129.546 107.181 130.77 106.278 131.672C105.376 132.575 104.151 133.082 102.875 133.082ZM102.875 110.623H38.7084C37.4321 110.623 36.208 110.116 35.3055 109.214C34.4029 108.311 33.8959 107.087 33.8959 105.811C33.8959 104.534 34.4029 103.31 35.3055 102.408C36.208 101.505 37.4321 100.998 38.7084 100.998H102.875C104.151 100.998 105.376 101.505 106.278 102.408C107.181 103.31 107.688 104.534 107.688 105.811C107.688 107.087 107.181 108.311 106.278 109.214C105.376 110.116 104.151 110.623 102.875 110.623Z" fill="#E6E6E6"/>
</svg>
