<svg width="24" height="24" viewBox="0 0 24 24" fill="none" xmlns="http://www.w3.org/2000/svg">
<g opacity="0.6">
<path d="M12 3C16.9707 3 21 7.0293 21 12C21 16.9707 16.9707 21 12 21C10.4095 21.0027 8.84693 20.5818 7.47301 19.7805L3.00361 21L4.22041 16.5288C3.41848 15.1544 2.99723 13.5912 3.00001 12C3.00001 7.0293 7.02931 3 12 3ZM8.93281 7.77L8.75281 7.7772C8.63643 7.78522 8.52272 7.81578 8.41801 7.8672C8.32043 7.92256 8.23132 7.99166 8.15341 8.0724C8.04541 8.1741 7.98421 8.2623 7.91851 8.3478C7.58562 8.78061 7.40639 9.31198 7.40911 9.85799C7.41091 10.299 7.52611 10.7283 7.70611 11.1297C8.07421 11.9415 8.67991 12.801 9.47911 13.5975C9.67171 13.7892 9.86071 13.9818 10.0641 14.1609C11.0572 15.0352 12.2406 15.6657 13.5201 16.0023L14.0313 16.0806C14.1978 16.0896 14.3643 16.077 14.5317 16.0689C14.7938 16.0551 15.0496 15.9841 15.2814 15.861C15.3992 15.8001 15.5142 15.734 15.6261 15.663C15.6261 15.663 15.6642 15.6372 15.7386 15.582C15.8601 15.492 15.9348 15.4281 16.0356 15.3228C16.1112 15.2448 16.1742 15.1542 16.2246 15.051C16.2948 14.9043 16.365 14.6244 16.3938 14.3913C16.4154 14.2131 16.4091 14.1159 16.4064 14.0556C16.4028 13.9593 16.3227 13.8594 16.2354 13.8171L15.7116 13.5822C15.7116 13.5822 14.9286 13.2411 14.4498 13.0233C14.3997 13.0015 14.346 12.989 14.2914 12.9864C14.2298 12.9799 14.1676 12.9868 14.1089 13.0065C14.0502 13.0263 13.9964 13.0584 13.9512 13.1007C13.9467 13.0989 13.8864 13.1502 13.2357 13.9386C13.1984 13.9888 13.1469 14.0267 13.0879 14.0475C13.0289 14.0684 12.9651 14.0712 12.9045 14.0556C12.8458 14.04 12.7884 14.0201 12.7326 13.9962C12.621 13.9494 12.5823 13.9314 12.5058 13.899C11.9891 13.6739 11.5108 13.3693 11.0883 12.9963C10.9749 12.8973 10.8696 12.7893 10.7616 12.6849C10.4076 12.3458 10.099 11.9622 9.84361 11.5437L9.79051 11.4582C9.75294 11.4004 9.72214 11.3385 9.69871 11.2737C9.66451 11.1414 9.75361 11.0352 9.75361 11.0352C9.75361 11.0352 9.97231 10.7958 10.074 10.6662C10.173 10.5402 10.2567 10.4178 10.3107 10.3305C10.4169 10.1595 10.4502 9.98399 10.3944 9.84809C10.1424 9.2325 9.88201 8.6202 9.61321 8.0112C9.56011 7.8906 9.40261 7.8042 9.25951 7.7871C9.21091 7.7811 9.16231 7.7763 9.11371 7.7727C8.99287 7.76577 8.87169 7.76697 8.75101 7.7763L8.93281 7.77Z" fill="white"/>
</g>
</svg>
