<svg width="512" height="512" viewBox="0 0 512 512" fill="none" xmlns="http://www.w3.org/2000/svg">
<rect width="512" height="512" rx="256" fill="white"/>
<path d="M240.167 404.906L351.034 215.866L334.916 188.325L334.6 187.794L319.352 161.706L318.193 159.717L303.696 134.935L302.363 132.663H210.638L178.717 187.065L177.989 188.325L161.87 215.797L195.949 273.251L212.791 244.524L195.757 215.797L211.412 189.123L211.875 188.325L227.485 161.706H287.986L288.132 161.486L288.251 161.706L302.629 186.268L303.815 188.325L319.04 214.345L223.636 377.026V377.049L240.167 404.906Z" fill="#16171F"/>
<path d="M415.218 213.016L256.647 490.487L240.24 462.099L384.769 215.651L368.797 188.33L368 186.946L353.238 161.706L351.565 158.875L336.244 132.663L335.158 130.798L320.685 106.043H192.15L161.339 157.784L159.016 161.706L144.373 186.296L143.14 188.33L127.384 214.78L192.489 324.534L226.179 267.103L258.003 213.69L272.426 238.234L256.427 265.046L190.89 376.788L96.0681 212.819L176.948 77H335.667L367.587 131.577L368.215 132.663L383.994 159.649L385.208 161.706L400.768 188.33H400.791V188.353L415.218 213.016Z" fill="#16171F"/>
</svg>
